<svg xmlns="http://www.w3.org/2000/svg" width="8.895" height="10.78" viewBox="0 0 8.895 10.78">
    <defs>
        <style>
            .cls-1{fill:#272323}
        </style>
    </defs>
    <g id="iconfinder_memo_2428666" transform="translate(-.001)">
        <path id="Path_4945" d="M65.585 28.069l-3.106-2.994a.259.259 0 0 0-.04-.031l-.019-.01-.025-.013-.026-.008-.022-.006a.27.27 0 0 0-.1 0l-.022.006-.026.008-.025.013-.019.01a.256.256 0 0 0-.072.069c0 .006-.007.012-.01.018a.232.232 0 0 0-.013.025.23.23 0 0 0-.008.025.217.217 0 0 0-.007.022.24.24 0 0 0-.005.049v2.994a.254.254 0 0 0 .259.25h1.45a.25.25 0 1 0 0-.5h-1.194v-2.143l2.589 2.5v6.47a.474.474 0 0 1-.482.463h-6.493a.25.25 0 1 0 0 .5h6.493a.983.983 0 0 0 1-.962v-6.579a.245.245 0 0 0-.077-.176z" class="cls-1" data-name="Path 4945" transform="translate(-56.769 -25.001)"/>
        <path id="Path_4946" d="M41.582 25.25a.229.229 0 0 0-.2-.25H38.9a.885.885 0 0 0-.774.962v9.568a.205.205 0 1 0 .4 0v-9.568a.426.426 0 0 1 .374-.462h2.48a.229.229 0 0 0 .202-.25z" class="cls-1" data-name="Path 4946" transform="translate(-38.128 -25)"/>
        <path id="Path_4947" d="M58.109 67.068h1.912a.2.2 0 1 0 0-.4h-1.912a.2.2 0 0 0 0 .4z" class="cls-1" data-name="Path 4947" transform="translate(-56.353 -63.644)"/>
        <path id="Path_4948" d="M64.1 126.389h-5.92c-.152 0-.275.09-.275.2s.123.2.275.2h5.92c.152 0 .275-.09.275-.2s-.12-.2-.275-.2z" class="cls-1" data-name="Path 4948" transform="translate(-56.768 -119.033)"/>
        <path id="Path_4949" d="M64.1 96.528h-5.92c-.152 0-.275.09-.275.2s.123.2.275.2h5.92c.152 0 .275-.09.275-.2s-.12-.2-.275-.2z" class="cls-1" data-name="Path 4949" transform="translate(-56.768 -91.339)"/>
    </g>
</svg>
