<svg xmlns="http://www.w3.org/2000/svg" width="27.093" height="27.092" viewBox="0 0 27.093 27.092">
    <defs>
        <style>
            .cls-1{fill:#e0000c}.cls-2{fill:#6d2158}
        </style>
    </defs>
    <g id="picnic-table" transform="translate(0 -.001)">
        <g id="Group_8659" data-name="Group 8659" transform="translate(18.467 4.235)">
            <g id="Group_8658" data-name="Group 8658">
                <path id="Path_6703" d="M349.527 80a.529.529 0 1 0 .529.529.529.529 0 0 0-.529-.529z" class="cls-1" data-name="Path 6703" transform="translate(-348.998 -80.004)"/>
            </g>
        </g>
        <g id="Group_8661" data-name="Group 8661" transform="translate(0 .001)">
            <g id="Group_8660" data-name="Group 8660">
                <path id="Path_6704" d="M27.093 20.956a1.59 1.59 0 0 0-1.058-1.5v-4.85a.529.529 0 1 0-1.058 0v4.762H19.9a1.587 1.587 0 0 0-.529 3.084v3.583h-4.237V18.31H19.9a1.587 1.587 0 0 0 0-3.175h-5.824V9.056a5.152 5.152 0 0 1 2.8-.589 4.439 4.439 0 0 1 2.648.577.53.53 0 0 0 .58.479h.017a.529.529 0 0 0 .457-.477 4.446 4.446 0 0 1 2.648-.576 5.23 5.23 0 0 1 2.8.582l.03.1a.529.529 0 0 0 .756.316.617.617 0 0 0 .179-.874C25.292 3.3 19.49.033 13.633 0h-.171C7.551.032 1.783 3.341.1 8.592c-.223.43-.062.862.346.927a.528.528 0 0 0 .592-.376l.028-.093a5.225 5.225 0 0 1 2.8-.582 4.446 4.446 0 0 1 2.648.576.53.53 0 0 0 .525.482.531.531 0 0 0 .525-.466 5.106 5.106 0 0 1 2.808-.593 4.469 4.469 0 0 1 2.646.574v6.093H7.2a1.587 1.587 0 1 0 0 3.175h4.762v7.725H7.726v-3.581a1.588 1.588 0 0 0-.526-3.085H2.117v-4.762a.529.529 0 0 0-1.058 0v4.852a1.588 1.588 0 0 0 0 2.994v3.583H.53a.529.529 0 1 0 0 1.058h26.033a.529.529 0 1 0 0-1.058h-.529v-3.582a1.588 1.588 0 0 0 1.059-1.497zM14.076 1.1a5.235 5.235 0 0 1 3.356 2.193.529.529 0 0 0 .855-.624 7.251 7.251 0 0 0-1.038-1.145 12.518 12.518 0 0 1 8.232 6.156 9.057 9.057 0 0 0-2.251-.27 6.99 6.99 0 0 0-2.819.5 23.895 23.895 0 0 0-.242-.982l-.069-.263a.529.529 0 0 0-1.025.264l.069.265c.047.181.095.364.14.549a8.031 8.031 0 0 0-2.404-.333 8.362 8.362 0 0 0-2.8.452V1.1zM6.668 26.036H2.117v-3.493h4.551zm.532-4.551H1.588a.529.529 0 1 1 0-1.058H7.2a.529.529 0 1 1 0 1.058zM6.656 7.9a7.057 7.057 0 0 0-2.793-.49 9.07 9.07 0 0 0-2.251.268A12.537 12.537 0 0 1 9.922 1.5a11.211 11.211 0 0 0-3.266 6.4zm3.715-.487a8.715 8.715 0 0 0-2.619.377A10.874 10.874 0 0 1 9.694 3.3a5.332 5.332 0 0 1 3.323-2.2v6.733a7.4 7.4 0 0 0-2.645-.423zM7.2 17.252a.529.529 0 1 1 0-1.058h12.7a.529.529 0 1 1 0 1.058zm6.879 8.784h-1.062V18.31h1.058zm10.9 0h-4.554v-3.493h4.551zm.529-4.551H19.9a.529.529 0 1 1 0-1.058h5.609a.529.529 0 0 1 0 1.058z" class="cls-2" data-name="Path 6704" transform="translate(0 -.001)"/>
            </g>
        </g>
    </g>
</svg>
