<svg xmlns="http://www.w3.org/2000/svg" width="22.979" height="30" viewBox="0 0 22.979 30">
    <defs>
        <style>
            .cls-1{fill:#ee4d9b}.cls-2{clip-path:url(#clip-path)}.cls-3{clip-path:url(#clip-path-2)}
        </style>
        <clipPath id="clip-path">
            <path id="Path_359" d="M11.362-16.213a6.894 6.894 0 0 1-6.894-6.894A6.894 6.894 0 0 1 11.362-30a6.894 6.894 0 0 1 6.894 6.894 6.894 6.894 0 0 1-6.894 6.893zm0-1.021a5.872 5.872 0 0 0 5.872-5.872 5.872 5.872 0 0 0-5.872-5.872 5.872 5.872 0 0 0-5.872 5.872 5.872 5.872 0 0 0 5.872 5.872z" class="cls-1" data-name="Path 359"/>
        </clipPath>
        <clipPath id="clip-path-2">
            <path id="Path_361" d="M1.021 0H0v-2.553a11.489 11.489 0 0 1 11.489-11.49 11.489 11.489 0 0 1 11.49 11.49V0h-1.022v-2.553a10.468 10.468 0 0 0-10.468-10.468A10.468 10.468 0 0 0 1.021-2.553z" class="cls-1" data-name="Path 361"/>
        </clipPath>
    </defs>
    <g id="login" transform="translate(0 30)">
        <g id="Group_218" class="cls-2" data-name="Group 218">
            <path id="Path_358" d="M-.532-35h23.787v23.787H-.532z" class="cls-1" data-name="Path 358"/>
        </g>
        <g id="Group_219" class="cls-3" data-name="Group 219">
            <path id="Path_360" d="M-5-19.043h32.979V5H-5z" class="cls-1" data-name="Path 360"/>
        </g>
    </g>
</svg>
