<svg xmlns="http://www.w3.org/2000/svg" width="35.54" height="30.96" viewBox="0 0 35.54 30.96">
    <defs>
        <style>
            .cls-1{fill:#a78647}.cls-2{clip-path:url(#clip-path)}
        </style>
        <clipPath id="clip-path">
            <path id="Path_365" d="M7.832-22.813h18.085a.49.49 0 0 1 .48.5.49.49 0 0 1-.48.5H8.025l2.031 10.56A2.187 2.187 0 0 0 12.2-9.48h15.6a2.187 2.187 0 0 0 2.041-1.4l5.312-13.812a.853.853 0 0 0-.8-1.16H7.248zm-.791-4H34.36a1.813 1.813 0 0 1 1.692 2.464L30.74-10.537A3.147 3.147 0 0 1 27.8-8.52H12.2a3.147 3.147 0 0 1-3.09-2.552L6.22-26.113a.48.48 0 0 1-.043-.123l-.505-2.527a2.187 2.187 0 0 0-2.144-1.757H1.115a.48.48 0 0 1-.48-.48.48.48 0 0 1 .48-.48h2.413a3.147 3.147 0 0 1 3.086 2.529zM26.667-.52a3.147 3.147 0 0 1-3.147-3.147 3.147 3.147 0 0 1 3.147-3.147 3.147 3.147 0 0 1 3.147 3.147A3.147 3.147 0 0 1 26.667-.52zm0-.96a2.187 2.187 0 0 0 2.187-2.187 2.187 2.187 0 0 0-2.187-2.187 2.187 2.187 0 0 0-2.187 2.187 2.187 2.187 0 0 0 2.187 2.187zm-13.334.96a3.147 3.147 0 0 1-3.147-3.147 3.147 3.147 0 0 1 3.147-3.147 3.147 3.147 0 0 1 3.147 3.147A3.147 3.147 0 0 1 13.333-.52zm0-.96a2.187 2.187 0 0 0 2.187-2.187 2.187 2.187 0 0 0-2.187-2.187 2.187 2.187 0 0 0-2.187 2.187 2.187 2.187 0 0 0 2.187 2.187z" class="cls-1" data-name="Path 365"/>
        </clipPath>
    </defs>
    <g id="cart" transform="translate(-.635 31.48)">
        <g id="Group_223" class="cls-2" data-name="Group 223">
            <path id="Path_364" d="M-4.365-36.48h45.54V4.48h-45.54z" class="cls-1" data-name="Path 364"/>
        </g>
    </g>
</svg>
