<svg xmlns="http://www.w3.org/2000/svg" width="99" height="99" viewBox="0 0 99 99">
    <path fill="#FF0092" fill-rule="evenodd" d="M49.5 99C22.162 99 0 76.838 0 49.5S22.162 0 49.5 0 99 22.162 99 49.5 76.838 99 49.5 99zm-5.104-39h9.66l.152-2.312c.276-2.476 1.37-4.636 3.283-6.481l3.056-2.918c2.39-2.325 4.063-4.441 5.019-6.349A13.396 13.396 0 0 0 67 35.857c0-4.725-1.472-8.382-4.415-10.972C59.64 22.295 55.503 21 50.17 21c-5.283 0-9.453 1.364-12.51 4.093-3.056 2.73-4.61 6.507-4.66 11.333h10.943c.05-2.022.636-3.607 1.755-4.757 1.12-1.15 2.61-1.724 4.472-1.724 3.924 0 5.887 2.135 5.887 6.405 0 1.415-.378 2.76-1.132 4.036-.755 1.276-2.27 2.931-4.548 4.965-2.276 2.034-3.842 4.1-4.698 6.197-.855 2.097-1.283 4.915-1.283 8.452zM43 72.536c0 1.582.55 2.888 1.648 3.918C45.747 77.484 47.198 78 49 78c1.802 0 3.253-.515 4.352-1.546C54.45 75.424 55 74.118 55 72.536c0-1.606-.562-2.93-1.685-3.972C52.19 67.52 50.753 67 49 67c-1.753 0-3.191.521-4.315 1.564C43.562 69.606 43 70.93 43 72.536z"/>
</svg>
