<svg xmlns="http://www.w3.org/2000/svg" width="131.805" height="131.85" viewBox="0 0 131.805 131.85">
  <g id="congrats" transform="translate(-1492 -6405)">
    <g id="Group_1148" data-name="Group 1148" transform="translate(1492 6436.156)">
      <g id="Group_1147" data-name="Group 1147" transform="translate(0 0)">
        <path id="Path_1225" data-name="Path 1225" d="M89.962,165a2.2,2.2,0,1,0-4.133,1.489c.01.028.021.056.032.083,2,5.228,2.148,9.226.4,10.983-2.126,2.122-7.422,1.459-14.171-1.771a93.958,93.958,0,0,1-24.315-18.144c-17.206-17.208-24.306-34.094-19.915-38.485a6,6,0,0,1,4.969-1.16,2.2,2.2,0,0,0,.426-4.371,10.116,10.116,0,0,0-8.5,2.416c-8.048,8.046,4.255,29.035,19.915,44.7a98.24,98.24,0,0,0,25.525,19,43.274,43.274,0,0,0,5.3,2.12l-15.607,5.918a62.176,62.176,0,0,1-39.32-48.423,2.2,2.2,0,1,0-4.341.681,66.505,66.505,0,0,0,37.725,49.987l-25.688,9.72a2.157,2.157,0,0,0-.439-.523,30.606,30.606,0,0,1-11.335-21.27L15.465,165.6a2.17,2.17,0,0,0-2.311-2.02l-.068.006a2.2,2.2,0,0,0-2.016,2.364s0,.01,0,.015l1.037,12.339a34.992,34.992,0,0,0,11.622,23.142L5.407,208.384,8.7,194.861a2.2,2.2,0,0,0-4.27-1.041L.146,211.393a2.2,2.2,0,0,0,2.913,2.577l81.276-30.753a2.047,2.047,0,0,0,.365-.228,8.533,8.533,0,0,0,4.663-2.326C91.539,178.485,93.413,174,89.962,165Z" transform="translate(-0.082 -113.468)" fill="#c20046"/>
      </g>
    </g>
    <g id="Group_1150" data-name="Group 1150" transform="translate(1555.761 6477.429)">
      <g id="Group_1149" data-name="Group 1149" transform="translate(0 0)">
        <path id="Path_1226" data-name="Path 1226" d="M279.142,268.373a72.337,72.337,0,0,0-37.218-3.613l-7.849,1.318a2.2,2.2,0,0,0,.725,4.332l7.846-1.307a67.893,67.893,0,0,1,34.953,3.4,2.26,2.26,0,0,0,.771.13,2.2,2.2,0,0,0,.771-4.255Z" transform="translate(-232.294 -263.781)" fill="#ffbe00"/>
      </g>
    </g>
    <g id="Group_1152" data-name="Group 1152" transform="translate(1560.108 6446.735)">
      <g id="Group_1151" data-name="Group 1151" transform="translate(0 0)">
        <path id="Path_1227" data-name="Path 1227" d="M298.436,153.25a2.2,2.2,0,0,0-2.928-1.039l-46.129,21.966a2.2,2.2,0,0,0-1.039,2.928h0a2.2,2.2,0,0,0,2.928,1.039h0L297.4,156.178A2.2,2.2,0,0,0,298.436,153.25Z" transform="translate(-248.126 -151.997)" fill="#ffbe00"/>
      </g>
    </g>
    <g id="Group_1154" data-name="Group 1154" transform="translate(1534.421 6418.149)">
      <g id="Group_1153" data-name="Group 1153" transform="translate(0 0)">
        <path id="Path_1228" data-name="Path 1228" d="M165.5,49.647a2.2,2.2,0,0,0-4.305.875c.005.026.011.052.018.079a61.446,61.446,0,0,1-3.28,37.143l-3.194,7.664a2.2,2.2,0,0,0,1.18,2.864,2.164,2.164,0,0,0,.844.169,2.2,2.2,0,0,0,2.028-1.351l3.2-7.655A65.812,65.812,0,0,0,165.5,49.647Z" transform="translate(-154.576 -47.887)" fill="#ffbe00"/>
      </g>
    </g>
    <g id="Group_1156" data-name="Group 1156" transform="translate(1606.232 6484.079)">
      <g id="Group_1155" data-name="Group 1155" transform="translate(0 0)">
        <path id="Path_1229" data-name="Path 1229" d="M422.695,288a6.59,6.59,0,1,0,6.59,6.59A6.59,6.59,0,0,0,422.695,288Zm0,8.787a2.2,2.2,0,1,1,2.2-2.2A2.2,2.2,0,0,1,422.695,296.787Z" transform="translate(-416.105 -288)" fill="#e6487e"/>
      </g>
    </g>
    <g id="Group_1158" data-name="Group 1158" transform="translate(1553.512 6422.573)">
      <g id="Group_1157" data-name="Group 1157" transform="translate(0 0)">
        <path id="Path_1230" data-name="Path 1230" d="M230.695,64a6.59,6.59,0,1,0,6.59,6.59A6.59,6.59,0,0,0,230.695,64Zm0,8.787a2.2,2.2,0,1,1,2.2-2.2A2.2,2.2,0,0,1,230.695,72.787Z" transform="translate(-224.105 -64)" fill="#e990c3"/>
      </g>
    </g>
    <g id="Group_1160" data-name="Group 1160" transform="translate(1535.939 6405)">
      <g id="Group_1159" data-name="Group 1159" transform="translate(0)">
        <circle id="Ellipse_7" data-name="Ellipse 7" cx="4.393" cy="4.393" r="4.393" fill="#e990c3"/>
      </g>
    </g>
    <g id="Group_1162" data-name="Group 1162" transform="translate(1599.642 6415.983)">
      <g id="Group_1161" data-name="Group 1161" transform="translate(0 0)">
        <path id="Path_1231" data-name="Path 1231" d="M394.3,40a2.2,2.2,0,0,0-2.2,2.2v2.2a2.2,2.2,0,1,0,4.393,0V42.2A2.2,2.2,0,0,0,394.3,40Z" transform="translate(-392.105 -40)" fill="#0076c1"/>
      </g>
    </g>
    <g id="Group_1164" data-name="Group 1164" transform="translate(1599.642 6405)">
      <g id="Group_1163" data-name="Group 1163" transform="translate(0)">
        <path id="Path_1232" data-name="Path 1232" d="M394.3,0a2.2,2.2,0,0,0-2.2,2.2v2.2a2.2,2.2,0,0,0,4.393,0V2.2A2.2,2.2,0,0,0,394.3,0Z" transform="translate(-392.105 0)" fill="#0076c1"/>
      </g>
    </g>
    <g id="Group_1166" data-name="Group 1166" transform="translate(1604.035 6411.59)">
      <g id="Group_1165" data-name="Group 1165" transform="translate(0 0)">
        <path id="Path_1233" data-name="Path 1233" d="M412.5,24h-2.2a2.2,2.2,0,1,0,0,4.393h2.2a2.2,2.2,0,0,0,0-4.393Z" transform="translate(-408.105 -24)" fill="#0076c1"/>
      </g>
    </g>
    <g id="Group_1168" data-name="Group 1168" transform="translate(1593.052 6411.59)">
      <g id="Group_1167" data-name="Group 1167" transform="translate(0 0)">
        <path id="Path_1234" data-name="Path 1234" d="M372.5,24h-2.2a2.2,2.2,0,0,0,0,4.393h2.2a2.2,2.2,0,1,0,0-4.393Z" transform="translate(-368.105 -24)" fill="#0076c1"/>
      </g>
    </g>
    <g id="Group_1170" data-name="Group 1170" transform="translate(1573.236 6429.117)">
      <g id="Group_1169" data-name="Group 1169" transform="translate(0 0)">
        <path id="Path_1235" data-name="Path 1235" d="M309.163,87.832H298.134a2.2,2.2,0,0,0-2.2,2.2v11.029a2.2,2.2,0,0,0,2.2,2.2h11.029a2.2,2.2,0,0,0,2.2-2.2V90.029A2.2,2.2,0,0,0,309.163,87.832Zm-2.2,11.029H300.33V92.225h6.636Z" transform="translate(-295.937 -87.832)" fill="#c3dd2e"/>
      </g>
    </g>
    <g id="Group_1172" data-name="Group 1172" transform="translate(1544.726 6446.765)">
      <g id="Group_1171" data-name="Group 1171" transform="translate(0 0)">
        <path id="Path_1236" data-name="Path 1236" d="M217.84,152.8a2.2,2.2,0,0,0-3.04-.159l-21.966,19.77a2.2,2.2,0,1,0,2.939,3.264l21.966-19.77A2.2,2.2,0,0,0,217.84,152.8Z" transform="translate(-192.107 -152.105)" fill="#ffbe00"/>
      </g>
    </g>
    <g id="Group_1174" data-name="Group 1174" transform="translate(1608.428 6455.523)">
      <g id="Group_1173" data-name="Group 1173" transform="translate(0 0)">
        <path id="Path_1237" data-name="Path 1237" d="M426.3,184a2.2,2.2,0,0,0-2.2,2.2v2.2a2.2,2.2,0,1,0,4.393,0v-2.2A2.2,2.2,0,0,0,426.3,184Z" transform="translate(-424.105 -184)" fill="#ffdc00"/>
      </g>
    </g>
    <g id="Group_1176" data-name="Group 1176" transform="translate(1614.67 6452.975)">
      <g id="Group_1175" data-name="Group 1175" transform="translate(0 0)">
        <path id="Path_1238" data-name="Path 1238" d="M452.111,176.892l-1.553-1.553a2.2,2.2,0,0,0-3.106,3.106L449.005,180a2.2,2.2,0,0,0,3.106-3.106Z" transform="translate(-446.836 -174.722)" fill="#ffdc00"/>
      </g>
    </g>
    <g id="Group_1178" data-name="Group 1178" transform="translate(1617.215 6446.736)">
      <g id="Group_1177" data-name="Group 1177" transform="translate(0 0)">
        <path id="Path_1239" data-name="Path 1239" d="M460.5,152h-2.2a2.2,2.2,0,1,0,0,4.393h2.2a2.2,2.2,0,1,0,0-4.393Z" transform="translate(-456.105 -152)" fill="#ffdc00"/>
      </g>
    </g>
    <g id="Group_1180" data-name="Group 1180" transform="translate(1614.643 6438.998)">
      <g id="Group_1179" data-name="Group 1179" transform="translate(0 0)">
        <path id="Path_1240" data-name="Path 1240" d="M451.987,124.435a2.2,2.2,0,0,0-3.052,0l-1.553,1.553a2.2,2.2,0,0,0,1.553,3.75h0a2.2,2.2,0,0,0,1.553-.644l1.553-1.553A2.2,2.2,0,0,0,451.987,124.435Z" transform="translate(-446.739 -123.818)" fill="#ffdc00"/>
      </g>
    </g>
    <g id="Group_1182" data-name="Group 1182" transform="translate(1608.428 6435.753)">
      <g id="Group_1181" data-name="Group 1181" transform="translate(0 0)">
        <path id="Path_1241" data-name="Path 1241" d="M426.3,112a2.2,2.2,0,0,0-2.2,2.2v2.2a2.2,2.2,0,1,0,4.393,0v-2.2A2.2,2.2,0,0,0,426.3,112Z" transform="translate(-424.105 -112)" fill="#ffdc00"/>
      </g>
    </g>
    <g id="Group_1184" data-name="Group 1184" transform="translate(1600.688 6438.998)">
      <g id="Group_1183" data-name="Group 1183" transform="translate(0 0)">
        <path id="Path_1242" data-name="Path 1242" d="M401.191,125.988l-1.553-1.553a2.2,2.2,0,0,0-3.106,3.106l1.553,1.553a2.2,2.2,0,0,0,3.106-3.106Z" transform="translate(-395.915 -123.818)" fill="#ffdc00"/>
      </g>
    </g>
    <g id="Group_1186" data-name="Group 1186" transform="translate(1492.004 6405.099)">
      <g id="Group_1185" data-name="Group 1185" transform="translate(0 0)">
        <path id="Path_1243" data-name="Path 1243" d="M26.35,9.76a2.2,2.2,0,0,0-1.773-1.494L18.13,7.328,15.255,1.487a2.287,2.287,0,0,0-3.941,0L8.425,7.328l-6.447.938A2.2,2.2,0,0,0,.757,12.012L5.42,16.559l-1.1,6.421A2.2,2.2,0,0,0,7.511,25.3l5.766-3.04,5.766,3.031a2.2,2.2,0,0,0,3.187-2.315l-1.1-6.421L25.8,12.012A2.2,2.2,0,0,0,26.35,9.76Zm-9.118,4.459a2.2,2.2,0,0,0-.633,1.942l.545,3.174-2.845-1.5a2.2,2.2,0,0,0-2.043,0L9.4,19.333l.545-3.174a2.2,2.2,0,0,0-.622-1.94L7.015,11.972l3.187-.463a2.2,2.2,0,0,0,1.654-1.2l1.421-2.884L14.7,10.307a2.2,2.2,0,0,0,1.652,1.2l3.185.463Z" transform="translate(-0.095 -0.361)" fill="#ffdc00"/>
      </g>
    </g>
    <g id="Group_1188" data-name="Group 1188" transform="translate(1590.907 6499.464)">
      <g id="Group_1187" data-name="Group 1187" transform="translate(0 0)">
        <path id="Path_1244" data-name="Path 1244" d="M385.771,359.673h-.009l-.905-1.358A33.148,33.148,0,0,0,362.8,344.053a2.2,2.2,0,0,0-.725,4.332,28.739,28.739,0,0,1,16.763,9.345,12.96,12.96,0,0,0-8.787,6.034A8.787,8.787,0,0,0,385.4,372.33a12.739,12.739,0,0,0,1.426-5.639A10.733,10.733,0,0,1,387.3,378.1a2.2,2.2,0,1,0,3.779,2.241c.02-.034.039-.067.057-.1A15.335,15.335,0,0,0,385.771,359.673Zm-4.207,10.513a4.393,4.393,0,0,1-7.693-4.246l.02-.036a8.231,8.231,0,0,1,5.949-3.871,2.234,2.234,0,0,1,1.1.255C382.793,363.324,382.892,367.81,381.565,370.187Z" transform="translate(-360.294 -344.031)" fill="#00b5d2"/>
      </g>
    </g>
  </g>
</svg>
