<svg xmlns="http://www.w3.org/2000/svg" width="8.893" height="10.134" viewBox="0 0 8.893 10.134">
    <defs>
        <style>
            .cls-1{fill:#e0000c}
        </style>
    </defs>
    <g id="iconfinder_trash_bin_1370026">
        <g id="Group_6723" data-name="Group 6723" transform="translate(1 3.513)">
            <path id="Path_4950" d="M11.318 21.621H7.346A1.511 1.511 0 0 1 5.9 20.058v-4.793a.246.246 0 1 1 .49 0v4.794a1 1 0 0 0 .956 1.033h3.971a1 1 0 0 0 .956-1.033v-4.794a.246.246 0 1 1 .49 0v4.794a1.527 1.527 0 0 1-1.445 1.562z" class="cls-1" data-name="Path 4950" transform="translate(-5.9 -15)"/>
        </g>
        <g id="Group_6724" data-name="Group 6724">
            <path id="Path_4951" d="M10.229 1.4H8.3A1.561 1.561 0 0 0 6.834 0a1.561 1.561 0 0 0-1.47 1.4H3.439A1.1 1.1 0 0 0 2.4 2.572a1.073 1.073 0 0 0 1.039 1.143h6.815a1.1 1.1 0 0 0 1.039-1.172A1.093 1.093 0 0 0 10.229 1.4zM6.834.572a.983.983 0 0 1 .937.829h-1.9a1.031 1.031 0 0 1 .963-.829zm3.395 2.572h-6.79a.572.572 0 0 1-.532-.6.573.573 0 0 1 .532-.6h6.815a.572.572 0 0 1 .532.6.592.592 0 0 1-.557.6z" class="cls-1" data-name="Path 4951" transform="translate(-2.4)"/>
        </g>
        <g id="Group_6725" data-name="Group 6725" transform="translate(2.388 3.913)">
            <path id="Path_4952" d="M12.186 21.744a.27.27 0 0 1-.286-.286v-4.772a.286.286 0 1 1 .572 0v4.773a.307.307 0 0 1-.286.285z" class="cls-1" data-name="Path 4952" transform="translate(-11.9 -16.4)"/>
        </g>
        <g id="Group_6726" data-name="Group 6726" transform="translate(5.908 3.913)">
            <path id="Path_4953" d="M26.186 21.744a.27.27 0 0 1-.286-.286v-4.772a.286.286 0 1 1 .572 0v4.773a.307.307 0 0 1-.286.285z" class="cls-1" data-name="Path 4953" transform="translate(-25.9 -16.4)"/>
        </g>
        <g id="Group_6727" data-name="Group 6727" transform="translate(4.148 3.913)">
            <path id="Path_4954" d="M19.186 21.744a.27.27 0 0 1-.286-.286v-4.772a.286.286 0 1 1 .572 0v4.773a.307.307 0 0 1-.286.285z" class="cls-1" data-name="Path 4954" transform="translate(-18.9 -16.4)"/>
        </g>
    </g>
</svg>
