<svg xmlns="http://www.w3.org/2000/svg" width="16.002" height="16" viewBox="0 0 16.002 16">
    <defs>
        <style>
            .cls-1{fill:#767676}
        </style>
    </defs>
    <g id="iconfinder_Edit_2202272" transform="translate(-2 -2.8)">
        <g id="Group_6745" data-name="Group 6745" transform="translate(7.833 2.8)">
            <g id="Group_6743" data-name="Group 6743" transform="translate(0 1.25)">
                <path id="Path_4956" d="M20.8 14.717l.875-2.625L27.967 5.8l1.75 1.75-6.292 6.292zm1.625-2.208l-.292.875.875-.292L28.55 7.55l-.583-.583z" class="cls-1" data-name="Path 4956" transform="translate(-20.8 -5.8)"/>
            </g>
            <g id="Group_6744" data-name="Group 6744" transform="translate(7.458)">
                <path id="Path_4957" d="M40.45 5.508l-1.75-1.75.583-.583a1.25 1.25 0 0 1 2.125.875 1.2 1.2 0 0 1-.375.875zm-.583-1.75l.583.583a.4.4 0 0 0 0-.583.4.4 0 0 0-.583 0z" class="cls-1" data-name="Path 4957" transform="translate(-38.7 -2.8)"/>
            </g>
        </g>
        <g id="Group_6746" data-name="Group 6746" transform="translate(2 4.55)">
            <path id="Path_4958" d="M15.154 21.25H3.1a1.077 1.077 0 0 1-1.1-1.1V8.1A1.077 1.077 0 0 1 3.1 7h9.865v.731H3.1a.345.345 0 0 0-.365.365v12.058a.345.345 0 0 0 .365.365h12.054a.345.345 0 0 0 .365-.365v-9.866h.731v9.865a1.077 1.077 0 0 1-1.096 1.097z" class="cls-1" data-name="Path 4958" transform="translate(-2 -7)"/>
        </g>
    </g>
</svg>
