<svg xmlns="http://www.w3.org/2000/svg" width="27.427" height="26.085" viewBox="0 0 27.427 26.085">
  <g id="fullstar" transform="translate(-0.377 125)" fill="#676767">
    <path d="M 21.90226936340332 -99.82887268066406 L 14.32346725463867 -103.8133163452148 L 14.09079742431641 -103.9356460571289 L 13.85812759399414 -103.8133163452148 L 6.279326438903809 -99.82887268066406 L 7.726747512817383 -108.2680358886719 L 7.771187305450439 -108.5271148681641 L 7.58295726776123 -108.7105941772461 L 1.451573848724365 -114.6872406005859 L 9.924927711486816 -115.9184875488281 L 10.18505764007568 -115.9562911987305 L 10.3013973236084 -116.192008972168 L 14.09079742431641 -123.8702087402344 L 17.88019752502441 -116.192008972168 L 17.99653816223145 -115.9562911987305 L 18.25666809082031 -115.9184875488281 L 26.73002052307129 -114.6872406005859 L 20.59863662719727 -108.7105941772461 L 20.41040802001953 -108.5271148681641 L 20.45484733581543 -108.2680358886719 L 21.90226936340332 -99.82887268066406 Z" stroke="none"/>
    <path d="M 21.23819732666016 -100.7428894042969 L 19.96203804016113 -108.1835174560547 L 19.87316703796387 -108.7016754150391 L 20.24963760375977 -109.0686492919922 L 25.6555347442627 -114.3381118774414 L 18.18476676940918 -115.4236755371094 L 17.66449737548828 -115.4992752075195 L 17.43182754516602 -115.9707260131836 L 14.09079742431641 -122.7404251098633 L 10.7497673034668 -115.9707260131836 L 10.51709747314453 -115.4992752075195 L 9.996827125549316 -115.4236755371094 L 2.52605938911438 -114.3381118774414 L 7.931957244873047 -109.0686492919922 L 8.308427810668945 -108.7016754150391 L 8.219557762145996 -108.1835174560547 L 6.943397998809814 -100.7428894042969 L 13.62545776367188 -104.2558898925781 L 14.09079742431641 -104.5005416870117 L 14.55613708496094 -104.2558898925781 L 21.23819732666016 -100.7428894042969 M 22.56632804870605 -98.91487121582031 L 14.09079742431641 -103.3707580566406 L 5.615267276763916 -98.91487121582031 L 7.233947277069092 -108.3525543212891 L 0.3770974278450012 -115.0363616943359 L 9.85302734375 -116.4132843017578 L 14.09079742431641 -124.9999847412109 L 18.32856750488281 -116.4132843017578 L 27.80449676513672 -115.0363616943359 L 20.94764709472656 -108.3525543212891 L 22.56632804870605 -98.91487121582031 Z" stroke="none" fill="#707070"/>
  </g>
</svg>
