<svg xmlns="http://www.w3.org/2000/svg" width="13.714" height="26.085" viewBox="0 0 13.714 26.085">
  <g id="half_star" data-name="half star" transform="translate(-0.377 125)" fill="#676767">
    <path d="M 6.279328346252441 -99.82887268066406 L 7.726749897003174 -108.2680358886719 L 7.77118968963623 -108.5271148681641 L 7.582959651947021 -108.7105941772461 L 1.451576113700867 -114.6872406005859 L 9.924929618835449 -115.9184875488281 L 10.18505954742432 -115.9562911987305 L 10.30139923095703 -116.192008972168 L 13.59079933166504 -122.8570938110352 L 13.59079933166504 -103.6727752685547 L 6.279328346252441 -99.82887268066406 Z" stroke="none"/>
    <path d="M 6.943400382995605 -100.7428894042969 L 13.09079933166504 -103.9748001098633 L 13.09079933166504 -120.7141952514648 L 10.74976921081543 -115.9707260131836 L 10.51709938049316 -115.4992752075195 L 9.996829986572266 -115.4236755371094 L 2.526061773300171 -114.3381118774414 L 7.931959629058838 -109.0686492919922 L 8.308429718017578 -108.7016754150391 L 8.219559669494629 -108.1835174560547 L 6.943400382995605 -100.7428894042969 M 5.615269660949707 -98.91487121582031 L 7.233949661254883 -108.3525543212891 L 0.3770996630191803 -115.0363616943359 L 9.853029251098633 -116.4132843017578 L 14.09079933166504 -124.9999847412109 L 14.09079933166504 -103.3707580566406 L 5.615269660949707 -98.91487121582031 Z" stroke="none" fill="#707070"/>
  </g>
</svg>
