<svg xmlns="http://www.w3.org/2000/svg" width="223" height="223" viewBox="0 0 223 223">
    <defs>
        <style>
            .cls-1{fill:#ee4d9b;stroke:#ee4d9b}.cls-2{fill:#fff}.cls-3{stroke:none}.cls-4{fill:none}
        </style>
    </defs>
    <g id="selected" transform="translate(-1454 -1273)">
        <g id="Ellipse_19" class="cls-1" data-name="Ellipse 19" transform="translate(1454 1273)">
            <circle cx="111.5" cy="111.5" r="111.5" class="cls-3"/>
            <circle cx="111.5" cy="111.5" r="111" class="cls-4"/>
        </g>
        <g id="heart-box" transform="translate(1506.081 1326)">
            <g id="Group_7190" data-name="Group 7190" transform="translate(8.919 35.612)">
                <g id="Group_7189" data-name="Group 7189">
                    <path id="Path_4927" d="M111.659 199.941l-9.679-19.211a4.912 4.912 0 0 0-4.347-2.8H23.3a4.912 4.912 0 0 0-4.347 2.8l-9.681 19.211a3.341 3.341 0 0 0 .125 3.217 2.9 2.9 0 0 0 2.481 1.433h7.881v41.749a4.79 4.79 0 0 0 4.568 4.974h72.279a4.79 4.79 0 0 0 4.568-4.974v-16.59a1.565 1.565 0 1 0-3.13 0v16.59a1.685 1.685 0 0 1-1.438 1.819H62.031v-62.064l8.161 16.2a4.038 4.038 0 0 0 3.579 2.3h24.272V232.9a1.565 1.565 0 1 0 3.13 0v-28.308h7.881a2.9 2.9 0 0 0 2.481-1.433 3.342 3.342 0 0 0 .124-3.218zm-99.612 1.494a.145.145 0 0 1 .015-.065l9.679-19.211a1.808 1.808 0 0 1 1.558-1.077h34.617l-9.966 19.78a.937.937 0 0 1-.789.572zM58.9 248.159H24.326a1.685 1.685 0 0 1-1.438-1.818v-41.75h24.273a4.038 4.038 0 0 0 3.579-2.3l8.161-16.2zm14.87-46.724a.936.936 0 0 1-.789-.572l-9.966-19.78h34.618a1.808 1.808 0 0 1 1.558 1.077l9.679 19.211a.142.142 0 0 1 .015.065z" class="cls-2" data-name="Path 4927" transform="translate(-8.919 -177.927)"/>
                </g>
            </g>
            <g id="Group_7192" data-name="Group 7192" transform="translate(42.197 9)">
                <g id="Group_7191" data-name="Group 7191">
                    <path id="Path_4928" d="M182.992 4.668a9.886 9.886 0 0 0-18.268 5.244c.008 7.623 5.112 15 14 20.247a1.5 1.5 0 0 0 1.525-2.586c-3.763-2.219-12.517-8.383-12.527-17.664a6.881 6.881 0 0 1 7.8-6.825 7.249 7.249 0 0 1 5.291 3.72 2.8 2.8 0 0 0 4.383-.041A7.162 7.162 0 0 1 191.376 3a6.893 6.893 0 0 1 6.884 6.876c.009 8.836-7.851 14.876-12.537 17.69a1.5 1.5 0 1 0 1.546 2.574c9.032-5.424 14-12.622 13.994-20.267a9.886 9.886 0 0 0-18.271-5.205z" class="cls-2" data-name="Path 4928" transform="translate(-164.724)"/>
                </g>
            </g>
        </g>
    </g>
</svg>
