<svg xmlns="http://www.w3.org/2000/svg" width="223" height="223" viewBox="0 0 223 223">
    <defs>
        <style>
            .cls-1{fill:#ee4d9b;stroke:#ee4d9b}.cls-2{fill:#fff}.cls-3{stroke:none}.cls-4{fill:none}
        </style>
    </defs>
    <g id="Group_7435_-selected" data-name="Group 7435 -selected" transform="translate(-852 -1273)">
        <g id="Ellipse_18" class="cls-1" data-name="Ellipse 18" transform="translate(852 1273)">
            <circle cx="111.5" cy="111.5" r="111.5" class="cls-3"/>
            <circle cx="111.5" cy="111.5" r="111" class="cls-4"/>
        </g>
        <g id="money" transform="translate(913 1329.018)">
            <g id="Group_7174" data-name="Group 7174" transform="translate(0 40.534)">
                <g id="Group_7173" data-name="Group 7173">
                    <path id="Path_4919" d="M86.932 160.017H1.465A1.447 1.447 0 0 0 0 161.446v40.108a1.447 1.447 0 0 0 1.461 1.432H59.58a1.432 1.432 0 1 0 0-2.864H2.93v-37.24h82.533v3.581a1.447 1.447 0 0 0 1.461 1.432 1.447 1.447 0 0 0 1.465-1.429v-5.016a1.447 1.447 0 0 0-1.457-1.433z" class="cls-2" data-name="Path 4919" transform="translate(0 -160.017)"/>
                </g>
            </g>
            <g id="Group_7176" data-name="Group 7176" transform="translate(3.341 18.016)">
                <g id="Group_7175" data-name="Group 7175">
                    <path id="Path_4920" d="M87.925 71.093L21.084 56.054a1.432 1.432 0 0 0-1.713 1.086L16.03 72.179a1.433 1.433 0 1 0 2.8.622l3.03-13.637L87.3 73.887a1.351 1.351 0 0 0 .316.035 1.432 1.432 0 0 0 .312-2.829z" class="cls-2" data-name="Path 4920" transform="translate(-15.995 -56.019)"/>
                </g>
            </g>
            <g id="Group_7178" data-name="Group 7178" transform="translate(22.506 5.982)">
                <g id="Group_7177" data-name="Group 7177">
                    <path id="Path_4921" d="M149.332 24.8l-40.1-16.71a1.437 1.437 0 0 0-1.838.683l-3.342 6.684a1.437 1.437 0 1 0 2.528 1.367c.015-.027.029-.055.042-.084l2.742-5.488 38.866 16.194a1.436 1.436 0 1 0 1.106-2.65z" class="cls-2" data-name="Path 4921" transform="translate(-103.875 -7.982)"/>
                </g>
            </g>
            <g id="Group_7180" data-name="Group 7180" transform="translate(54.743 46.977)">
                <g id="Group_7179" data-name="Group 7179">
                    <path id="Path_4922" d="M270.695 192.017h-13.263a1.432 1.432 0 1 0 0 2.864h13.263a1.432 1.432 0 0 0 0-2.864z" class="cls-2" data-name="Path 4922" transform="translate(-256 -192.017)"/>
                </g>
            </g>
            <g id="Group_7182" data-name="Group 7182" transform="translate(27.59 47.286)">
                <g id="Group_7181" data-name="Group 7181">
                    <path id="Path_4923" d="M143.161 192.473a14.7 14.7 0 1 0 14.7 14.705 14.7 14.7 0 0 0-14.7-14.705zm0 26.736a12.031 12.031 0 1 1 12.031-12.031 12.031 12.031 0 0 1-12.031 12.031z" class="cls-2" data-name="Path 4923" transform="translate(-128.456 -192.473)"/>
                </g>
            </g>
            <g id="Group_7184" data-name="Group 7184" transform="translate(63.238 52.509)">
                <g id="Group_7183" data-name="Group 7183">
                    <path id="Path_4924" d="M321.237 214.873c-8.856 0-18.381 2.092-18.381 6.684v40.1c0 4.592 9.525 6.684 18.381 6.684s18.381-2.092 18.381-6.684v-40.1c0-4.592-9.525-6.684-18.381-6.684zm15.039 46.763c-.252.927-5.264 3.367-15.039 3.367s-14.787-2.44-15.039-3.342v-2.627c3.556 1.791 9.43 2.627 15.039 2.627s11.485-.844 15.039-2.629zm0-6.684c-.252.927-5.264 3.367-15.039 3.367s-14.787-2.44-15.039-3.342v-2.627c3.556 1.791 9.43 2.627 15.039 2.627s11.485-.844 15.039-2.629zm0-6.684c-.252.927-5.264 3.367-15.039 3.367s-14.787-2.44-15.039-3.342v-2.627c3.556 1.791 9.43 2.627 15.039 2.627s11.485-.844 15.039-2.629zm0-6.684c-.252.927-5.264 3.367-15.039 3.367s-14.787-2.44-15.039-3.342v-2.627c3.556 1.791 9.43 2.627 15.039 2.627s11.485-.844 15.039-2.629zm0-6.684c-.252.927-5.264 3.367-15.039 3.367s-14.787-2.44-15.039-3.342V232.3c3.556 1.783 9.43 2.627 15.039 2.627s11.485-.844 15.039-2.629zm0-6.684c-.252.927-5.264 3.367-15.039 3.367s-14.787-2.44-15.039-3.342v-2.627c3.556 1.783 9.43 2.627 15.039 2.627s11.485-.844 15.039-2.629zm-15.039-3.316c-9.76 0-14.77-2.433-15.039-3.312v-.01c.269-.931 5.279-3.362 15.039-3.362 9.692 0 14.7 2.4 15.039 3.342-.334.942-5.347 3.342-15.039 3.342z" class="cls-2" data-name="Path 4924" transform="translate(-302.856 -214.873)"/>
                </g>
            </g>
            <g id="Group_7186" data-name="Group 7186" transform="translate(6.682 47.191)">
                <g id="Group_7185" data-name="Group 7185">
                    <path id="Path_4925" d="M53.478 218.752H40.847l-5.989-6.55V201.34l6.614-6.458h12.006a1.432 1.432 0 0 0 0-2.864H40.89a1.434 1.434 0 0 0-1 .406l-7.467 7.276a1.8 1.8 0 0 0-.431 1.17v11.884a1.433 1.433 0 0 0 .374.966l6.789 7.426a1.432 1.432 0 0 0 1.058.466h13.265a1.432 1.432 0 0 0 0-2.864z" class="cls-2" data-name="Path 4925" transform="translate(-31.992 -192.017)"/>
                </g>
            </g>
            <g id="Group_7188" data-name="Group 7188" transform="translate(37.332 54.452)">
                <g id="Group_7187" data-name="Group 7187">
                    <path id="Path_4926" d="M180.7 232.722h-1.671c-.52 0-.836-.291-.836-.418s.316-.418.836-.418h4.178a1.671 1.671 0 1 0 0-3.342h-1.667a1.671 1.671 0 1 0-3.342 0v.075a3.89 3.89 0 0 0-3.342 3.676 3.99 3.99 0 0 0 4.178 3.768h1.666c.52 0 .836.291.836.418s-.316.418-.836.418h-4.178a1.671 1.671 0 0 0 0 3.342h1.678a1.671 1.671 0 1 0 3.342 0v-.075a3.89 3.89 0 0 0 3.342-3.676 3.99 3.99 0 0 0-4.184-3.768z" class="cls-2" data-name="Path 4926" transform="translate(-174.856 -226.873)"/>
                </g>
            </g>
        </g>
    </g>
</svg>
