<svg xmlns="http://www.w3.org/2000/svg" width="223" height="223" viewBox="0 0 223 223">
    <defs>
        <style>
            .cls-1,.cls-2,.cls-3,.cls-5{fill:none}.cls-1,.cls-2{stroke:rgba(238,77,155,.6)}.cls-2{stroke-linecap:round;stroke-linejoin:round;stroke-miterlimit:10}.cls-4,.cls-6{stroke:none}.cls-6{fill:rgba(238,77,155,.6)}
        </style>
    </defs>
    <g id="Group_7434" data-name="Group 7434" transform="translate(-222 -1273)">
        <g id="Ellipse_17" class="cls-1" data-name="Ellipse 17" transform="translate(222 1273)">
            <circle cx="111.5" cy="111.5" r="111.5" class="cls-4"/>
            <circle cx="111.5" cy="111.5" r="111" class="cls-5"/>
        </g>
        <g id="Group_7197" data-name="Group 7197" transform="translate(-77 -192)">
            <g id="Group_7196" data-name="Group 7196" transform="translate(362 1527)">
                <g id="Group_7172" data-name="Group 7172" transform="translate(36.435 4.046)">
                    <g id="iconfinder_jee-68_2180672">
                        <g id="Group_6645" data-name="Group 6645">
                            <path id="Path_4904" d="M9.805 14.378L12.53 17.1a.145.145 0 0 0 .205 0l2.723-2.725.2-.2a2 2 0 0 0-2.828-2.828l-.2.2-.2-.2a2 2 0 0 0-2.825 2.828l.2.2L12.53 17.1a.145.145 0 0 0 .205 0l2.723-2.725" class="cls-2" data-name="Path 4904" transform="translate(-9.023 -10.769)"/>
                        </g>
                    </g>
                    <g id="iconfinder_jee-68_2180672-2" data-name="iconfinder_jee-68_2180672" transform="translate(18.265 7.416)">
                        <g id="Group_6645-2" data-name="Group 6645">
                            <path id="Path_4904-2" d="M9.695 13.867l2.339 2.339a.125.125 0 0 0 .176 0l2.337-2.339.173-.171a1.716 1.716 0 1 0-2.427-2.427l-.171.173-.173-.173A1.716 1.716 0 0 0 9.524 13.7l.171.171 2.339 2.339a.125.125 0 0 0 .176 0l2.337-2.339" class="cls-2" data-name="Path 4904" transform="translate(-9.023 -10.769)"/>
                        </g>
                    </g>
                    <g id="iconfinder_jee-68_2180672-3" data-name="iconfinder_jee-68_2180672" transform="translate(14.41 14.41)">
                        <g id="Group_6645-3" data-name="Group 6645">
                            <path id="Path_4904-3" d="M10.03 15.415l3.507 3.507a.187.187 0 0 0 .264 0l3.5-3.507.259-.257a2.573 2.573 0 0 0-3.639-3.639l-.257.259-.259-.259a2.572 2.572 0 0 0-3.637 3.639l.257.257 3.507 3.507a.187.187 0 0 0 .264 0l3.5-3.507" class="cls-2" data-name="Path 4904" transform="translate(-9.023 -10.769)"/>
                        </g>
                    </g>
                    <g id="iconfinder_jee-68_2180672-4" data-name="iconfinder_jee-68_2180672" transform="translate(.611 12.64)">
                        <g id="Group_6645-4" data-name="Group 6645">
                            <path id="Path_4904-4" d="M10.257 16.463l4.3 4.3a.229.229 0 0 0 .324 0l4.3-4.3.318-.314a3.154 3.154 0 0 0-4.461-4.461l-.314.318-.318-.318a3.153 3.153 0 0 0-4.457 4.461l.314.314 4.3 4.3a.229.229 0 0 0 .324 0l4.3-4.3" class="cls-2" data-name="Path 4904" transform="translate(-9.023 -10.769)"/>
                        </g>
                    </g>
                    <g id="iconfinder_jee-68_2180672-5" data-name="iconfinder_jee-68_2180672" transform="translate(8.187 3.118)">
                        <g id="Group_6645-5" data-name="Group 6645">
                            <path id="Path_4904-5" d="M9.964 15.109l3.276 3.276a.174.174 0 0 0 .247 0l3.274-3.276.242-.24a2.4 2.4 0 1 0-3.4-3.4l-.24.242-.242-.242a2.4 2.4 0 0 0-3.4 3.4l.24.24 3.276 3.276a.174.174 0 0 0 .247 0l3.274-3.276" class="cls-2" data-name="Path 4904" transform="translate(-9.023 -10.769)"/>
                        </g>
                    </g>
                </g>
                <g id="market-store">
                    <g id="Path_4916" class="cls-3" data-name="Path 4916">
                        <path d="M101.221 239.728h-2.03V187.5a11.579 11.579 0 0 1-6.818-2.282 11.643 11.643 0 0 1-4.53 2.041 11.486 11.486 0 0 1-2.336.241 11.206 11.206 0 0 1-1.521-.128v38.848a3.932 3.932 0 0 1-3.844 4.015H66.334v-11l4.868 8.49a3.042 3.042 0 0 0 2.637 1.56 2.96 2.96 0 0 0 1.575-.457 3.291 3.291 0 0 0 1.054-4.4l-9.786-17.069a3 3 0 0 0-2.807-1.517c-.074-.007-11.338-.009-11.407 0a3.007 3.007 0 0 0-2.848 1.521l-9.786 17.069a3.291 3.291 0 0 0 1.054 4.4 2.96 2.96 0 0 0 1.575.457 3.042 3.042 0 0 0 2.637-1.56l4.9-8.549v11.057H36.163a3.932 3.932 0 0 1-3.844-4.015v-38.847a11.2 11.2 0 0 1-1.521.128 11.489 11.489 0 0 1-6.867-2.282 11.575 11.575 0 0 1-6.816 2.282v52.225h-2.03a5.031 5.031 0 0 0 0 10.052h86.138a5.031 5.031 0 0 0 0-10.052z" class="cls-4" transform="translate(-10.272 -149.78)"/>
                        <path d="M101.221 247.78c1.55 0 2.81-1.357 2.81-3.025 0-1.67-1.261-3.027-2.81-3.027H97.19V189.35a13.539 13.539 0 0 1-4.816-1.736 13.442 13.442 0 0 1-6.39 1.88v36.73c0 3.316-2.621 6.014-5.843 6.014H64.334v-20.512l3.735 6.514 4.869 8.492c.198.346.535.553.901.553.18 0 .353-.051.513-.151.544-.341.718-1.125.381-1.712l-9.786-17.07a1.005 1.005 0 0 0-.954-.514l-.155.009-.07-.007a3188.985 3188.985 0 0 0-11.215-.003l-.081.006-.147-.01a1.011 1.011 0 0 0-.97.52l-9.786 17.07c-.337.586-.162 1.37.38 1.71.162.1.335.152.515.152.366 0 .703-.207.902-.555l4.9-8.544L52 211.672v20.566H36.163c-3.222 0-5.844-2.698-5.844-6.015v-36.729a13.414 13.414 0 0 1-6.392-1.88 13.537 13.537 0 0 1-4.814 1.735v52.38H15.083c-1.549 0-2.809 1.357-2.809 3.025 0 1.669 1.26 3.026 2.81 3.026h86.137m0 2H15.084c-2.657 0-4.81-2.25-4.81-5.026s2.153-5.026 4.81-5.026h2.03v-52.225c2.494 0 4.853-.85 6.817-2.282a11.607 11.607 0 0 0 4.524 2.04c.785.162 1.57.242 2.344.242.515 0 1.02-.06 1.52-.128v38.848c0 2.217 1.72 4.015 3.844 4.015H50V219.18l-4.9 8.545c-.574 1.004-1.592 1.56-2.636 1.56a2.96 2.96 0 0 1-1.575-.457c-1.454-.911-1.927-2.88-1.055-4.401l9.786-17.069a3.004 3.004 0 0 1 2.849-1.52c.026-.003 1.773-.004 3.892-.004 3.287 0 7.47.003 7.514.007a2.996 2.996 0 0 1 2.807 1.517l9.786 17.069c.873 1.52.4 3.49-1.054 4.401a2.96 2.96 0 0 1-1.575.457c-1.044 0-2.062-.556-2.637-1.56l-4.868-8.49v11.003h13.808c2.123 0 3.843-1.798 3.843-4.015v-38.848c.501.068 1.005.128 1.521.128.778 0 1.563-.08 2.336-.24a11.643 11.643 0 0 0 4.53-2.042c1.964 1.432 4.324 2.282 6.818 2.282h.001v52.225h2.03c2.657 0 4.81 2.25 4.81 5.026 0 2.777-2.153 5.026-4.81 5.026z" class="cls-6" transform="translate(-10.272 -149.78)"/>
                    </g>
                    <g id="Path_4917" class="cls-3" data-name="Path 4917">
                        <path d="M218 197.226c-3.69 0-6.685 3.423-6.685 7.648s3 7.648 6.685 7.648 6.687-3.426 6.687-7.648-2.995-7.648-6.687-7.648z" class="cls-4" transform="translate(-170.121 -156.846)"/>
                        <path d="M217.999 199.226c-2.583 0-4.685 2.534-4.685 5.648 0 1.558.52 3.01 1.465 4.091.877 1.004 2.021 1.557 3.22 1.557 2.584 0 4.687-2.533 4.687-5.648 0-3.114-2.103-5.648-4.687-5.648m0-2c3.693 0 6.686 3.423 6.687 7.648 0 4.222-2.994 7.648-6.687 7.648-3.69 0-6.685-3.426-6.685-7.648 0-4.225 2.995-7.648 6.685-7.648z" class="cls-6" transform="translate(-170.121 -156.846)"/>
                    </g>
                    <g id="Path_4918" class="cls-3" data-name="Path 4918">
                        <path d="M15.149 36.556a6.63 6.63 0 0 0 1.961.3 6.886 6.886 0 0 0 6.549-5.1l.36-1.257a7.012 7.012 0 0 0 5.43 6.222 6.564 6.564 0 0 0 1.342.138 6.926 6.926 0 0 0 6.7-5.753l.167-.874a7 7 0 0 0 6.125 6.591 6.725 6.725 0 0 0 .688.034 6.961 6.961 0 0 0 6.8-6.439l.051-.53a6.824 6.824 0 1 0 13.646 0l.051.53a6.961 6.961 0 0 0 6.8 6.439 6.656 6.656 0 0 0 .687-.034 7 7 0 0 0 6.126-6.591l.167.874a6.924 6.924 0 0 0 6.7 5.753 6.565 6.565 0 0 0 1.343-.138 7.01 7.01 0 0 0 5.43-6.222l.36 1.257a6.886 6.886 0 0 0 6.549 5.1 6.639 6.639 0 0 0 1.961-.3 7.205 7.205 0 0 0 4.6-8.894L99.563 6.071A8.193 8.193 0 0 0 91.765 0H24.524a8.193 8.193 0 0 0-7.8 6.071l-6.172 21.592a7.205 7.205 0 0 0 4.597 8.893z" class="cls-4" transform="translate(-10.265)"/>
                        <path d="M85.497 34.855c.314 0 .628-.032.935-.096 2.063-.429 3.61-2.227 3.848-4.475l3.912-.34.36 1.26a5.1 5.1 0 0 0 1.797 2.675c.821.63 1.826.976 2.83.976.456 0 .916-.07 1.366-.208 2.585-.809 4.052-3.695 3.269-6.435L97.64 6.621A6.466 6.466 0 0 0 95.4 3.263 5.871 5.871 0 0 0 91.765 2h-67.24a5.871 5.871 0 0 0-3.635 1.263c-1.078.84-1.853 2-2.241 3.358l-6.174 21.591c-.782 2.74.684 5.626 3.268 6.434.45.139.91.21 1.367.21a4.686 4.686 0 0 0 2.83-.977 5.1 5.1 0 0 0 1.797-2.677l.36-1.257 3.912.337c.24 2.25 1.787 4.048 3.85 4.477.305.064.62.096.933.096 2.289 0 4.281-1.735 4.737-4.127l.167-.875 3.96.237c.174 2.504 1.998 4.497 4.335 4.74.154.016.313.024.483.024 1.175 0 2.311-.46 3.198-1.293a5.248 5.248 0 0 0 1.608-3.336l.05-.53 3.991.141c.033 1.366.56 2.639 1.484 3.585.901.924 2.088 1.433 3.34 1.433 1.252 0 2.438-.509 3.34-1.433.923-.946 1.45-2.22 1.483-3.585l3.99-.141.051.53a5.248 5.248 0 0 0 1.608 3.335c.887.834 2.023 1.294 3.198 1.294.172 0 .33-.008.481-.024 2.34-.243 4.165-2.236 4.337-4.739l3.96-.238.167.875c.456 2.392 2.448 4.127 4.737 4.127m0 2c-3.197 0-6.053-2.352-6.702-5.752l-.167-.874c-.234 3.402-2.766 6.242-6.125 6.59-.231.025-.46.035-.688.035-3.47 0-6.445-2.75-6.797-6.439l-.05-.53c-.094 3.864-3.104 6.969-6.823 6.969-3.72 0-6.73-3.105-6.823-6.97l-.051.531c-.352 3.688-3.326 6.439-6.797 6.439-.228 0-.457-.01-.688-.034-3.359-.35-5.89-3.19-6.125-6.591l-.167.874c-.648 3.399-3.505 5.752-6.702 5.752-.442 0-.892-.044-1.342-.138-2.996-.623-5.108-3.21-5.43-6.222l-.36 1.258c-.885 3.1-3.606 5.102-6.55 5.102a6.63 6.63 0 0 1-1.96-.299c-3.622-1.13-5.678-5.113-4.598-8.893L16.726 6.07C17.756 2.468 20.926 0 24.524 0h67.241c3.598 0 6.769 2.468 7.798 6.07l6.174 21.593c1.08 3.78-.976 7.762-4.597 8.893a6.639 6.639 0 0 1-1.961.3c-2.943 0-5.664-2.004-6.55-5.103l-.36-1.258c-.32 3.013-2.434 5.6-5.43 6.222-.45.094-.9.138-1.342.138z" class="cls-6" transform="translate(-10.265)"/>
                    </g>
                </g>
            </g>
        </g>
    </g>
</svg>
