<svg xmlns="http://www.w3.org/2000/svg" width="62" height="62" viewBox="0 0 62 62">
    <g fill="none" fill-rule="nonzero" transform="translate(1 1)">
        <circle cx="30" cy="30" r="30" fill="#F03690" stroke="#F03690" stroke-width="2"/>
        <path fill="#FFF" d="M22.866 47C16.322 47 11 41.617 11 35s5.322-12 11.866-12c2.68 0 5.145.913 7.134 2.434A11.704 11.704 0 0 1 37.134 23C43.678 23 49 28.383 49 35s-5.323 12-11.866 12c-2.68 0-5.145-.913-7.134-2.434A11.704 11.704 0 0 1 22.866 47zM30 30.151a8.72 8.72 0 0 0-1.465 4.85c0 1.793.54 3.462 1.465 4.848A8.714 8.714 0 0 0 31.465 35c0-1.793-.54-3.462-1.465-4.849zm7.135-3.847a8.482 8.482 0 0 0-4.805 1.487 12.011 12.011 0 0 1 0 14.418 8.483 8.483 0 0 0 4.805 1.487c4.741 0 8.599-3.9 8.599-8.696 0-4.795-3.858-8.696-8.6-8.696zm-14.27 0c-4.74 0-8.599 3.9-8.598 8.696 0 4.796 3.857 8.696 8.599 8.696a8.483 8.483 0 0 0 4.805-1.487 12.011 12.011 0 0 1 0-14.417 8.482 8.482 0 0 0-4.805-1.488zM30 22l-.7-.685c-2.6-2.25-4.3-3.766-4.3-5.625 0-1.516 1.2-2.69 2.75-2.69.85 0 1.7.391 2.25 1.027A3.032 3.032 0 0 1 32.25 13C33.8 13 35 14.174 35 15.69c0 1.859-1.7 3.375-4.3 5.625L30 22z"/>
    </g>
</svg>
