<svg xmlns="http://www.w3.org/2000/svg" id="logo" width="61.165" height="60" viewBox="0 0 61.165 60">
    <defs>
        <style>
            .cls-1{fill:#e0000c}
        </style>
    </defs>
    <g id="Desktop-HD" transform="translate(-100 -23)">
        <g id="logo-2" data-name="logo" transform="translate(100 23)">
            <path id="Combined-Shape" d="M16.059 16.779l.125 1.007-1.012-.008h-.1a13.333 13.333 0 1 0 2.081 26.5l1-.158.019 1.02a13.3 13.3 0 0 0 26.591-.255 13.475 13.475 0 0 0-.163-2.1l-.169-1.073 1.083.046q.289.012.579.012a13.333 13.333 0 1 0-2.507-26.43l-1.007.193-.045-1.027a13.3 13.3 0 0 0-26.58.6 13.51 13.51 0 0 0 .105 1.673zm-1.876-1.668a15.068 15.068 0 0 1 30.049-1.663 15.11 15.11 0 1 1 2.248 30.1q.058.665.058 1.338a15.068 15.068 0 0 1-30.087 1.271q-.686.063-1.382.063a15.113 15.113 0 0 1-.859-30.2q-.027-.45-.027-.909z" class="cls-1"/>
            <path id="Combined-Shape-2" d="M10.834 29.889l.729.7-.791.632-.08.065a13.319 13.319 0 1 0 18.251 19.288l.682-.757.655.78a13.312 13.312 0 0 0 20.504-16.978 13.424 13.424 0 0 0-1.443-1.526l-.8-.727.87-.647q.232-.173.458-.356A13.319 13.319 0 1 0 31.329 11.4l-.661.785-.679-.769A13.312 13.312 0 0 0 9.707 28.658a13.46 13.46 0 0 0 1.127 1.231zm-2.5-.113A15.089 15.089 0 0 1 30.637 9.522a15.227 15.227 0 0 1 1.376-1.265A15.094 15.094 0 0 1 51.277 31.5q.462.48.885 1a15.088 15.088 0 0 1-22.584 19.974q-.494.482-1.035.921a15.094 15.094 0 0 1-19.62-22.926q-.307-.336-.594-.692z" class="cls-1" data-name="Combined-Shape"/>
            <path id="Path" d="M25.029 29.429a.665.665 0 1 1-1.221-.528l6.1-13.684 12.586 28.737a.665.665 0 1 1-1.218.536L29.923 18.56z" class="cls-1"/>
            <path id="Path-2" d="M23.913 28.745c4.863-.488 9.217 1.312 13.012 5.357.842.9 1.652 2.543 3.186 4.787.208.3.3.681 0 .889s-.517.089-.725-.215a42.177 42.177 0 0 0-3.43-4.547c-3.523-3.754-7.477-5.389-11.89-4.946-2.93.392-5.58 3.827-5.185 6.6a3.956 3.956 0 0 0 4.211 4.3c2.119 0 3.324-1.027 3.324-3.111a2.13 2.13 0 0 0-1.467-2.177 2.18 2.18 0 0 0-2.052.2.666.666 0 1 1-.94-.943 3.6 3.6 0 0 1 5.789 2.916c0 2.872-1.844 4.444-4.654 4.444a6.169 6.169 0 0 1-3.3-.971c-1.406-.928-2.062-2.437-2.238-4.538a7.879 7.879 0 0 1 6.359-8.045z" class="cls-1"/>
        </g>
    </g>
</svg>
