<svg xmlns="http://www.w3.org/2000/svg" width="129.809" height="54.824" viewBox="0 0 129.809 54.824">
    <defs>
        <style>
            .cls-1{fill:#6d6e70}.cls-2{fill:#231f20}.cls-3{fill:url(#linear-gradient)}.cls-4{fill:#e64482}.cls-5{fill:url(#linear-gradient-2)}.cls-6{fill:url(#linear-gradient-3)}.cls-7{fill:url(#linear-gradient-4)}
        </style>
        <linearGradient id="linear-gradient" x1=".083" x2=".779" y1=".823" y2=".098" gradientUnits="objectBoundingBox">
            <stop offset=".024" stop-color="#6f1d59"/>
            <stop offset=".369" stop-color="#6f1d59"/>
            <stop offset=".541" stop-color="#7a1d59"/>
            <stop offset="1" stop-color="#b71f6e"/>
        </linearGradient>
        <linearGradient id="linear-gradient-2" x1=".735" x2="-.271" y1=".724" y2="-.435" gradientUnits="objectBoundingBox">
            <stop offset="0" stop-color="#c62477"/>
            <stop offset=".524" stop-color="#69174c"/>
            <stop offset=".976" stop-color="#60164b"/>
        </linearGradient>
        <linearGradient id="linear-gradient-3" x1="1.161" x2=".269" y1="1.016" y2=".154" gradientUnits="objectBoundingBox">
            <stop offset=".085" stop-color="#b81d82"/>
            <stop offset=".705" stop-color="#ee4b80"/>
        </linearGradient>
        <linearGradient id="linear-gradient-4" x1=".22" x2=".652" y1=".788" y2=".266" gradientUnits="objectBoundingBox">
            <stop offset=".004" stop-color="#952477"/>
            <stop offset=".705" stop-color="#ee4b80"/>
        </linearGradient>
    </defs>
    <g id="logo" transform="translate(-110.336 -293.498)">
        <g id="Group_4" data-name="Group 4" transform="translate(110.335 293.498)">
            <g id="Group_2" data-name="Group 2" transform="translate(.004)">
                <path id="Path_4" d="M122.989 222.087a6.435 6.435 0 0 0-2.6-1.563 4.869 4.869 0 0 1-1.41-.921 1.772 1.772 0 0 1 .941-3l.085-.019a2.6 2.6 0 0 1 .358-.026 2.134 2.134 0 0 1 2.1 1.721l.033.1.984-.379-.031-.092a3.179 3.179 0 0 0-3.089-2.409 3.11 3.11 0 0 0-.911.13l-.042.013a2.851 2.851 0 0 0-2.022 2.711 2.739 2.739 0 0 0 .818 2 5.537 5.537 0 0 0 2.2 1.284 5.536 5.536 0 0 1 1.846 1.2 2.844 2.844 0 1 1-4.027 4.018 3.092 3.092 0 0 1-.83-1.777l-.017-.124-1.023.372.014.084a3.957 3.957 0 0 0 1.1 2.19 3.9 3.9 0 1 0 5.527-5.508z" class="cls-1" data-name="Path 4" transform="translate(-116.346 -215.498)"/>
                <path id="Path_5" d="M158.174 215.977v1.079h-5.55v4.828h5.55v1.071h-5.55v4.828h5.55v1.079h-6.63v-12.885z" class="cls-1" data-name="Path 5" transform="translate(-138.236 -215.796)"/>
                <path id="Path_6" d="M184.282 215.977l3.782 10.387 3.773-10.387h1.155l-4.929 13.532-4.922-13.532z" class="cls-1" data-name="Path 6" transform="translate(-157.887 -215.796)"/>
                <path id="Path_7" d="M230.45 215.977v1.079h-5.55v4.828h5.55v1.071h-5.55v4.828h5.55v1.079h-6.629v-12.885z" class="cls-1" data-name="Path 7" transform="translate(-183.186 -215.796)"/>
                <path id="Path_8" d="M257.667 215.977h1.071l6.128 10.617v-10.617h1.079v12.885h-.994l-6.2-10.726v10.726h-1.079z" class="cls-1" data-name="Path 8" transform="translate(-204.235 -215.796)"/>
            </g>
            <path id="Path_9" d="M116.335 265.767h2.5l10.5 28.841 10.479-28.841h2.543l-13.021 35.741z" data-name="Path 9" transform="translate(-116.335 -246.761)"/>
            <path id="Path_10" d="M206.416 299.89a17.716 17.716 0 1 1 12.533-5.183 17.133 17.133 0 0 1-12.533 5.183zm0-33.015a15.305 15.305 0 1 0 10.828 4.483 14.787 14.787 0 0 0-10.828-4.483z" class="cls-2" data-name="Path 10" transform="translate(-161.346 -245.961)"/>
            <path id="Path_11" d="M422.869 282.337a17.189 17.189 0 0 0-6.979-4.18 13.5 13.5 0 0 1-3.9-2.558 5.077 5.077 0 0 1 2.7-8.608.045.045 0 0 0 0-.01c1.413-.263 5.484-.519 7.191 4.744l2.155-.832c-2.211-6.614-7.826-6.829-10.509-6.006v.005a7.42 7.42 0 0 0-3.269 12.352 14.727 14.727 0 0 0 5.879 3.422 15.26 15.26 0 0 1 5.1 3.3 7.988 7.988 0 1 1-11.31 11.283 8.653 8.653 0 0 1-2.325-4.974l-2.247.817a10.478 10.478 0 0 0 2.917 5.794 10.308 10.308 0 1 0 14.6-14.555z" data-name="Path 11" transform="translate(-296.079 -246.003)"/>
            <path id="Path_12" d="M329.8 252.724c0 .016-.005-.023-.006 0v3.176c.464-.835 1.85-3.023 3.254-1.816.9.773.22 3.1-.217 4.3l-11.269 27.4 1.3 3.413 12.638-30.963h-.019c2.702-7.834-5.235-8.228-5.681-5.51z" class="cls-3" data-name="Path 12" transform="translate(-243.967 -237.701)"/>
            <path id="Path_14" d="M299.963 298.174l-12.607-32.54h-2.612l13.92 35.868z" class="cls-5" data-name="Path 14" transform="translate(-221.071 -246.678)"/>
            <path id="Path_15" d="M334.225 268.616l-1.515-3.738-2.491-5.845-.3-.776h-.008c-.432-1.185-1.071-3.386-.164-4.149 1.42-1.193 2.81.983 3.273 1.817v-3.15a.046.046 0 0 0 0-.012c-.447-2.717-8.406-2.339-5.709 5.494l4.043 9.9 1.356 3.357 8.521 21.033 1.345-3.461z" class="cls-6" data-name="Path 15" transform="translate(-247.192 -237.721)"/>
            <path id="Path_16" d="M366.38 298.041l12.6-32.408h-2.612l-11.33 29.127" class="cls-7" data-name="Path 16" transform="translate(-271.005 -246.678)"/>
        </g>
    </g>
</svg>
