<svg xmlns="http://www.w3.org/2000/svg" width="403.127" height="360.255" viewBox="0 0 403.127 360.255">
    <defs>
        <style>
            .cls-1,.cls-4{fill:#231f20}.cls-1,.cls-11{opacity:.1}.cls-2{fill:#ee4d9b}.cls-3{opacity:.2}.cls-5{fill:#f1f2f2}.cls-6{fill:#e6e7e8}.cls-10,.cls-7{fill:#fff}.cls-8{fill:#414042}.cls-9{fill:#b2875d}.cls-10{font-size:50px;font-family:NunitoSans-Bold,Nunito Sans;font-weight:700;letter-spacing:.03em}.cls-12{fill:#c49a6c}
        </style>
    </defs>
    <g id="BACKGROUND_1" data-name="BACKGROUND 1" transform="translate(-103.903 -64.106)">
        <g id="Group_65" data-name="Group 65" transform="translate(103.903 64.106)">
            <g id="Group_63" data-name="Group 63">
                <path id="Path_29" d="M507.03 325.649c0 9.037-90.242 7.882-201.563 7.882S103.9 334.686 103.9 325.649s90.244-16.367 201.564-16.367 201.566 7.327 201.566 16.367z" class="cls-1" data-name="Path 29" transform="translate(-103.903 26.677)"/>
                <g id="Group_62" data-name="Group 62" transform="translate(10.311)">
                    <g id="Group_47" data-name="Group 47" transform="translate(71.116)">
                        <g id="Group_36" data-name="Group 36">
                            <g id="Group_35" data-name="Group 35">
                                <path id="Path_31" d="M322.31 133.645a69.54 69.54 0 1 1-69.542-69.539 69.539 69.539 0 0 1 69.542 69.539z" class="cls-2" data-name="Path 31" transform="translate(-155.957 -64.106)"/>
                                <path id="Path_32" d="M334.348 121.96a38.442 38.442 0 1 1-38.443-38.44 38.442 38.442 0 0 1 38.443 38.44z" class="cls-2" data-name="Path 32" transform="translate(-128.47 -56.917)"/>
                                <path id="Path_33" d="M305.251 170.823a70.962 70.962 0 1 1-70.962-70.96 70.96 70.96 0 0 1 70.962 70.96z" class="cls-2" data-name="Path 33" transform="translate(-163.327 -50.866)"/>
                                <path id="Path_34" d="M375.964 173.14a65.5 65.5 0 1 1-65.5-65.5 65.494 65.494 0 0 1 65.5 65.5z" class="cls-2" data-name="Path 34" transform="translate(-133.096 -47.985)"/>
                            </g>
                        </g>
                        <g id="Group_46" data-name="Group 46" transform="translate(61.827 45.057)">
                            <g id="Group_37" class="cls-3" data-name="Group 37" transform="translate(4.887 1.646)">
                                <path id="Path_35" d="M300 98.208l.039-.019h-88.025v137.466l128.059.62-16.114-113.954z" class="cls-4" data-name="Path 35" transform="translate(-212.014 -98.189)"/>
                            </g>
                            <g id="Group_38" data-name="Group 38">
                                <path id="Path_36" d="M296.429 97.006l.037-.018h-88.019v137.466h114.214V123.237z" class="cls-5" data-name="Path 36" transform="translate(-208.447 -96.988)"/>
                            </g>
                            <g id="Group_39" data-name="Group 39" transform="translate(6.578 10.597)">
                                <path id="Rectangle_19" d="M0 0h87.249v1.502H0z" class="cls-6" data-name="Rectangle 19"/>
                                <path id="Rectangle_20" d="M0 0h101.395v1.502H0z" class="cls-6" data-name="Rectangle 20" transform="translate(0 13.519)"/>
                                <path id="Rectangle_21" d="M0 0h101.395v1.502H0z" class="cls-6" data-name="Rectangle 21" transform="translate(0 27.038)"/>
                                <path id="Rectangle_22" d="M0 0h101.395v1.502H0z" class="cls-6" data-name="Rectangle 22" transform="translate(0 40.557)"/>
                                <path id="Rectangle_23" d="M0 0h101.395v1.502H0z" class="cls-6" data-name="Rectangle 23" transform="translate(0 54.076)"/>
                                <path id="Rectangle_24" d="M0 0h101.395v1.502H0z" class="cls-6" data-name="Rectangle 24" transform="translate(0 67.596)"/>
                                <path id="Rectangle_25" d="M0 0h101.395v1.502H0z" class="cls-6" data-name="Rectangle 25" transform="translate(0 81.115)"/>
                                <path id="Rectangle_26" d="M0 0h101.395v1.501H0z" class="cls-6" data-name="Rectangle 26" transform="translate(0 94.635)"/>
                                <path id="Rectangle_27" d="M0 0h101.395v1.503H0z" class="cls-6" data-name="Rectangle 27" transform="translate(0 108.154)"/>
                                <path id="Rectangle_28" d="M0 0h101.395v1.503H0z" class="cls-6" data-name="Rectangle 28" transform="translate(0 121.672)"/>
                            </g>
                            <path id="Path_37" d="M298.9 123.243h-26.246V97z" class="cls-7" data-name="Path 37" transform="translate(-184.673 -96.983)"/>
                            <g id="Group_45" data-name="Group 45" transform="translate(15.799 32.769)">
                                <g id="Group_42" data-name="Group 42">
                                    <g id="Group_40" data-name="Group 40">
                                        <path id="Path_38" d="M252.113 136.97a16.068 16.068 0 1 1-16.068-16.07 16.067 16.067 0 0 1 16.068 16.07z" class="cls-7" data-name="Path 38" transform="translate(-219.977 -120.902)"/>
                                        <path id="Path_39" d="M246.834 135.847a11.912 11.912 0 1 1-11.912-11.913 11.912 11.912 0 0 1 11.912 11.913z" class="cls-8" data-name="Path 39" transform="translate(-218.854 -119.779)"/>
                                        <path id="Path_40" d="M234.236 127.728a4.063 4.063 0 1 1-4.061-4.063 4.063 4.063 0 0 1 4.061 4.063z" class="cls-7" data-name="Path 40" transform="translate(-217.706 -119.879)"/>
                                        <path id="Path_41" d="M228.665 133.365a2.018 2.018 0 1 1-2.017-2.017 2.019 2.019 0 0 1 2.017 2.017z" class="cls-7" data-name="Path 41" transform="translate(-218.255 -117.034)"/>
                                        <path id="Path_42" d="M233.27 137.646a3.08 3.08 0 1 1-3.08-3.08 3.08 3.08 0 0 1 3.08 3.08z" class="cls-7" data-name="Path 42" transform="translate(-217.336 -115.843)"/>
                                        <path id="Path_43" d="M241.671 135.273c-3.559.554-4.005 1-4.558 4.559-.554-3.557-1-4.005-4.558-4.559 3.557-.551 4-1 4.558-4.556.553 3.557.999 4.005 4.558 4.556z" class="cls-7" data-name="Path 43" transform="translate(-215.319 -117.268)"/>
                                    </g>
                                    <g id="Group_41" data-name="Group 41" transform="translate(51.569)">
                                        <path id="Path_44" d="M289.745 136.97a16.067 16.067 0 1 1-16.066-16.07 16.068 16.068 0 0 1 16.066 16.07z" class="cls-7" data-name="Path 44" transform="translate(-257.611 -120.902)"/>
                                        <path id="Path_45" d="M284.466 135.847a11.911 11.911 0 1 1-11.91-11.913 11.91 11.91 0 0 1 11.91 11.913z" class="cls-8" data-name="Path 45" transform="translate(-256.488 -119.779)"/>
                                        <path id="Path_46" d="M271.869 127.728a4.063 4.063 0 1 1-4.061-4.063 4.063 4.063 0 0 1 4.061 4.063z" class="cls-7" data-name="Path 46" transform="translate(-255.34 -119.879)"/>
                                        <path id="Path_47" d="M266.3 133.365a2.018 2.018 0 1 1-2.018-2.017 2.019 2.019 0 0 1 2.018 2.017z" class="cls-7" data-name="Path 47" transform="translate(-255.889 -117.034)"/>
                                        <path id="Path_48" d="M270.905 137.646a3.082 3.082 0 1 1-3.083-3.08 3.083 3.083 0 0 1 3.083 3.08z" class="cls-7" data-name="Path 48" transform="translate(-254.971 -115.843)"/>
                                        <path id="Path_49" d="M279.305 135.273c-3.559.554-4.007 1-4.558 4.559-.554-3.557-1-4.005-4.559-4.559 3.557-.551 4.005-1 4.559-4.556.553 3.557 1 4.005 4.558 4.556z" class="cls-7" data-name="Path 49" transform="translate(-252.954 -117.268)"/>
                                    </g>
                                </g>
                                <g id="Group_44" data-name="Group 44" transform="translate(18.427 36.101)">
                                    <g id="Group_43" data-name="Group 43">
                                        <path id="Path_50" d="M277.881 173.068a2.393 2.393 0 0 1-2.394-2.394 18.636 18.636 0 0 0-37.273 0 2.395 2.395 0 0 1-4.789 0 23.425 23.425 0 1 1 46.85 0 2.393 2.393 0 0 1-2.394 2.394z" class="cls-8" data-name="Path 50" transform="translate(-233.425 -147.248)"/>
                                    </g>
                                </g>
                            </g>
                        </g>
                    </g>
                    <g id="Group_61" data-name="Group 61" transform="translate(0 143.744)">
                        <g id="Group_56" data-name="Group 56" transform="translate(55.336)">
                            <g id="Group_48" data-name="Group 48">
                                <path id="Path_51" d="M421.036 376.49H151.81l.015-207.482h269.2z" class="cls-9" data-name="Path 51" transform="translate(-151.81 -169.007)"/>
                                <text id="Sorry" class="cls-10" transform="translate(136.147 154.396)">
                                    <tspan x="-66.375" y="0">Sorry</tspan>
                                </text>
                            </g>
                            <g id="Group_55" data-name="Group 55" transform="translate(.151 86.812)">
                                <g id="Group_49" class="cls-11" data-name="Group 49">
                                    <path id="Rectangle_29" d="M0 0h27.349v15H0z" class="cls-7" data-name="Rectangle 29"/>
                                </g>
                                <g id="Group_50" class="cls-11" data-name="Group 50" transform="translate(0 34.939)">
                                    <path id="Rectangle_30" d="M0 0h27.349v15.002H0z" class="cls-7" data-name="Rectangle 30"/>
                                </g>
                                <g id="Group_51" class="cls-11" data-name="Group 51" transform="translate(0 69.879)">
                                    <path id="Rectangle_31" d="M0 0h27.349v15.001H0z" class="cls-7" data-name="Rectangle 31"/>
                                </g>
                                <g id="Group_52" class="cls-11" data-name="Group 52" transform="translate(241.676)">
                                    <path id="Rectangle_32" d="M0 0h27.349v15H0z" class="cls-7" data-name="Rectangle 32"/>
                                </g>
                                <g id="Group_53" class="cls-11" data-name="Group 53" transform="translate(241.676 34.939)">
                                    <path id="Rectangle_33" d="M0 0h27.349v15.002H0z" class="cls-7" data-name="Rectangle 33"/>
                                </g>
                                <g id="Group_54" class="cls-11" data-name="Group 54" transform="translate(241.676 69.879)">
                                    <path id="Rectangle_34" d="M0 0h27.349v15.001H0z" class="cls-7" data-name="Rectangle 34"/>
                                </g>
                            </g>
                        </g>
                        <g id="Group_60" data-name="Group 60">
                            <g id="Group_57" data-name="Group 57" transform="translate(321.252)">
                                <path id="Path_52" d="M401.251 224.507l-55.38-52.012 3.3-3.487 55.361 52.008z" class="cls-12" data-name="Path 52" transform="translate(-345.871 -169.007)"/>
                            </g>
                            <g id="Group_58" data-name="Group 58">
                                <path id="Path_53" d="M114.706 224.507l55.38-52.012-3.308-3.487-55.35 52.008z" class="cls-12" data-name="Path 53" transform="translate(-111.428 -169.007)"/>
                            </g>
                            <g id="Group_59" data-name="Group 59" transform="translate(37.375)">
                                <path id="Path_54" d="M443.851 237.99H138.7l17.976-68.983h269.2z" class="cls-12" data-name="Path 54" transform="translate(-138.703 -169.007)"/>
                            </g>
                        </g>
                    </g>
                </g>
            </g>
        </g>
    </g>
</svg>
