<svg xmlns="http://www.w3.org/2000/svg" width="27.427" height="26.085" viewBox="0 0 27.427 26.085">
  <g id="outline_star" data-name="outline star" transform="translate(-0.377 125)" fill="none">
    <path d="M14.091-103.371,5.615-98.915l1.619-9.438L.377-115.036l9.476-1.377L14.091-125l4.238,8.587,9.476,1.377-6.857,6.684,1.619,9.438Z" stroke="none"/>
    <path d="M 21.23819732666016 -100.7428894042969 L 19.96203804016113 -108.1835174560547 L 19.87316703796387 -108.7016754150391 L 20.24963760375977 -109.0686492919922 L 25.6555347442627 -114.3381118774414 L 18.18476676940918 -115.4236755371094 L 17.66449737548828 -115.4992752075195 L 17.43182754516602 -115.9707260131836 L 14.09079742431641 -122.7404251098633 L 10.7497673034668 -115.9707260131836 L 10.51709747314453 -115.4992752075195 L 9.996827125549316 -115.4236755371094 L 2.52605938911438 -114.3381118774414 L 7.931957244873047 -109.0686492919922 L 8.308427810668945 -108.7016754150391 L 8.219557762145996 -108.1835174560547 L 6.943397998809814 -100.7428894042969 L 13.62545776367188 -104.2558898925781 L 14.09079742431641 -104.5005416870117 L 14.55613708496094 -104.2558898925781 L 21.23819732666016 -100.7428894042969 M 22.56632804870605 -98.91487121582031 L 14.09079742431641 -103.3707580566406 L 5.615267276763916 -98.91487121582031 L 7.233947277069092 -108.3525543212891 L 0.3770974278450012 -115.0363616943359 L 9.85302734375 -116.4132843017578 L 14.09079742431641 -124.9999847412109 L 18.32856750488281 -116.4132843017578 L 27.80449676513672 -115.0363616943359 L 20.94764709472656 -108.3525543212891 L 22.56632804870605 -98.91487121582031 Z" stroke="none" fill="#707070"/>
  </g>
</svg>
