<svg xmlns="http://www.w3.org/2000/svg" width="32" height="32" viewBox="0 0 32 32">
    <defs>
        <style>
            .cls-1{fill:#fff}.cls-2{fill:none;stroke:#461204;stroke-linecap:round;stroke-linejoin:round;stroke-miterlimit:10}
        </style>
    </defs>
    <g id="pintrest" transform="translate(-128 12)">
        <rect id="Rectangle_507" width="32" height="32" class="cls-1" data-name="Rectangle 507" rx="4" transform="translate(128 -12)"/>
        <g id="iconfinder_Socialmedia_icons_Pinterest-23_433080" transform="translate(131.001 -9)">
            <path id="Path_6715" d="M13.031 1A12.031 12.031 0 0 0 8.2 24.05a10.623 10.623 0 0 1 .209-2.762c.233-.979 1.549-6.558 1.549-6.558a4.606 4.606 0 0 1-.385-1.9c0-1.782 1.034-3.113 2.322-3.113a1.61 1.61 0 0 1 1.622 1.8 25.91 25.91 0 0 1-1.063 4.27 1.861 1.861 0 0 0 1.9 2.317c2.28 0 3.815-2.927 3.815-6.4 0-2.636-1.774-4.608-5.006-4.608A5.7 5.7 0 0 0 7.24 12.86a3.478 3.478 0 0 0 .793 2.362.579.579 0 0 1 .172.67c-.056.222-.188.754-.243.965a.415.415 0 0 1-.6.3c-1.681-.685-2.463-2.526-2.463-4.6 0-3.418 2.881-7.516 8.6-7.516 4.593 0 7.616 3.324 7.616 6.892 0 4.719-2.625 8.244-6.492 8.244a3.448 3.448 0 0 1-2.939-1.5s-.7 2.772-.846 3.307a10.084 10.084 0 0 1-1.211 2.577A12.031 12.031 0 1 0 13.031 1z" class="cls-2" data-name="Path 6715"/>
        </g>
    </g>
</svg>
