<svg xmlns="http://www.w3.org/2000/svg" width="28.8" height="28.8" viewBox="0 0 28.8 28.8">
  <g id="Group_9424" data-name="Group 9424" transform="translate(-1024.1 -1826.12)">
    <circle id="Ellipse_31" data-name="Ellipse 31" cx="14" cy="14" r="14" transform="translate(1024.5 1826.52)" fill="none" stroke="#ee4d9b" stroke-linecap="round" stroke-width="0.8"/>
    <g id="Union_8" data-name="Union 8" transform="translate(1032.987 1835.007)" fill="#ee4d9b">
      <path d="M 5.812183380126953 11.1914234161377 L 5.662183284759521 11.1914234161377 L 5.28489351272583 11.1914234161377 L 5.134893417358398 11.1914234161377 L 5.134893417358398 11.04142379760742 L 5.134893417358398 5.906663417816162 L 3.329315177325043e-06 5.906663417816162 L -0.1499966681003571 5.906663417816162 L -0.1499966681003571 5.75666332244873 L -0.1499966681003571 5.379363536834717 L -0.1499966681003571 5.229363441467285 L 3.329315177325043e-06 5.229363441467285 L 5.134893417358398 5.229363441467285 L 5.134893417358398 3.329315177325043e-06 L 5.134893417358398 -0.1499966681003571 L 5.28489351272583 -0.1499966681003571 L 5.662183284759521 -0.1499966681003571 L 5.812183380126953 -0.1499966681003571 L 5.812183380126953 3.329315177325043e-06 L 5.812183380126953 5.229363441467285 L 11.04142379760742 5.229363441467285 L 11.1914234161377 5.229363441467285 L 11.1914234161377 5.379363536834717 L 11.1914234161377 5.75666332244873 L 11.1914234161377 5.906663417816162 L 11.04142379760742 5.906663417816162 L 5.812183380126953 5.906663417816162 L 5.812183380126953 11.04142379760742 L 5.812183380126953 11.1914234161377 Z" stroke="none"/>
      <path d="M 5.662183284759521 11.04142379760742 L 5.662183284759521 5.75666332244873 L 11.04142379760742 5.75666332244873 L 11.04142379760742 5.379363536834717 L 5.662183284759521 5.379363536834717 L 5.662183284759521 3.329315177325043e-06 L 5.28489351272583 3.329315177325043e-06 L 5.28489351272583 5.379363536834717 L 3.329315177325043e-06 5.379363536834717 L 3.329315177325043e-06 5.75666332244873 L 5.28489351272583 5.75666332244873 L 5.28489351272583 11.04142379760742 L 5.662183284759521 11.04142379760742 M 5.962183475494385 11.34142303466797 L 5.662183284759521 11.34142303466797 L 5.28489351272583 11.34142303466797 L 4.984893321990967 11.34142303466797 L 4.984893321990967 11.04142379760742 L 4.984893321990967 6.056663513183594 L 3.329315177325043e-06 6.056663513183594 L -0.2999966740608215 6.056663513183594 L -0.2999966740608215 5.75666332244873 L -0.2999966740608215 5.379363536834717 L -0.2999966740608215 5.079363346099854 L 3.329315177325043e-06 5.079363346099854 L 4.984893321990967 5.079363346099854 L 4.984893321990967 3.329315177325043e-06 L 4.984893321990967 -0.2999966740608215 L 5.28489351272583 -0.2999966740608215 L 5.662183284759521 -0.2999966740608215 L 5.962183475494385 -0.2999966740608215 L 5.962183475494385 3.329315177325043e-06 L 5.962183475494385 5.079363346099854 L 11.04142379760742 5.079363346099854 L 11.34142303466797 5.079363346099854 L 11.34142303466797 5.379363536834717 L 11.34142303466797 5.75666332244873 L 11.34142303466797 6.056663513183594 L 11.04142379760742 6.056663513183594 L 5.962183475494385 6.056663513183594 L 5.962183475494385 11.04142379760742 L 5.962183475494385 11.34142303466797 Z" stroke="none" fill="#ee4d9b"/>
    </g>
  </g>
</svg>
