<svg xmlns="http://www.w3.org/2000/svg" width="47" height="37" viewBox="0 0 47 37">
    <path fill="#FFF" fill-rule="evenodd" d="M21 28.567c0 2.249-.899 4.216-2.697 5.903C16.505 36.157 14.384 37 11.94 37c-3.84 0-6.79-1.283-8.85-3.848C1.03 30.587 0 27.038 0 22.506c0-4.217 1.772-8.468 5.315-12.755C8.86 5.464 13.127 2.214 18.12 0l2.304 3.742c-3.945 1.933-7.035 4.182-9.27 6.747-2.234 2.565-3.526 5.674-3.875 9.329h2.933c2.165 0 3.928.246 5.29.738 1.36.491 2.46 1.177 3.298 2.055.803.843 1.37 1.775 1.702 2.794.332 1.019.498 2.073.498 3.162zm26 0c0 2.249-.899 4.216-2.697 5.903C42.505 36.157 40.384 37 37.94 37c-3.84 0-6.79-1.283-8.85-3.848C27.03 30.587 26 27.038 26 22.506c0-4.217 1.772-8.468 5.315-12.755C34.86 5.464 39.127 2.214 44.12 0l2.304 3.742c-3.945 1.933-7.035 4.182-9.27 6.747-2.234 2.565-3.526 5.674-3.875 9.329h2.933c2.165 0 3.928.246 5.29.738 1.36.491 2.46 1.177 3.298 2.055.803.843 1.37 1.775 1.702 2.794.332 1.019.498 2.073.498 3.162z"/>
</svg>
