<svg xmlns="http://www.w3.org/2000/svg" width="35" height="35" viewBox="0 0 35 35">
    <g fill="#E0000C" fill-rule="nonzero">
        <path d="M17.5 5.185c-6.562 0-11.9 4.943-11.9 11.019 0 4.61 3.074 8.693 7.7 10.305v5.898c0 .359.313.649.7.649h.7v1.296c0 .358.313.648.7.648h4.2c.387 0 .7-.29.7-.648v-1.296h.7c.387 0 .7-.29.7-.649V26.51c4.626-1.612 7.7-5.696 7.7-10.305 0-6.076-5.338-11.019-11.9-11.019zm2.1 26.574c-.387 0-.7.29-.7.648v1.297h-2.8v-1.297c0-.358-.313-.648-.7-.648h-.7v-3.24h5.6v3.24h-.7zm1.182-6.324a.655.655 0 0 0-.482.615v1.172h-5.6V26.05a.654.654 0 0 0-.482-.615C9.902 24.12 7 20.41 7 16.204c0-5.361 4.71-9.723 10.5-9.723S28 10.843 28 16.204c0 4.206-2.901 7.916-7.218 9.23zM17.5 3.889c.387 0 .7-.29.7-.648V.648C18.2.29 17.887 0 17.5 0c-.387 0-.7.29-.7.648v2.593c0 .358.313.648.7.648zM34.3 15.556h-2.8c-.387 0-.7.29-.7.648 0 .358.313.648.7.648h2.8c.387 0 .7-.29.7-.648 0-.359-.313-.648-.7-.648zM3.5 15.556H.7c-.387 0-.7.29-.7.648 0 .358.313.648.7.648h2.8c.387 0 .7-.29.7-.648 0-.359-.313-.648-.7-.648zM28.885 4.746l-1.98 1.833a.614.614 0 0 0 0 .916c.137.127.316.19.495.19.18 0 .359-.063.495-.19l1.98-1.833a.614.614 0 0 0 0-.916.74.74 0 0 0-.99 0zM7.105 24.912l-1.98 1.833a.614.614 0 0 0 0 .917c.137.126.316.19.495.19.18 0 .359-.064.495-.19l1.98-1.833a.614.614 0 0 0 0-.917.74.74 0 0 0-.99 0zM27.895 24.912a.74.74 0 0 0-.99 0 .614.614 0 0 0 0 .917l1.98 1.833c.136.126.316.19.495.19s.358-.064.495-.19a.614.614 0 0 0 0-.917l-1.98-1.833zM7.105 7.495c.136.127.316.19.495.19.18 0 .358-.063.495-.19a.614.614 0 0 0 0-.916l-1.98-1.833a.74.74 0 0 0-.99 0 .614.614 0 0 0 0 .916l1.98 1.833z"/>
        <path d="M17.5 8.426c-4.632 0-8.4 3.489-8.4 7.778 0 .358.313.648.7.648.387 0 .7-.29.7-.648 0-3.574 3.14-6.482 7-6.482.387 0 .7-.29.7-.648 0-.358-.313-.648-.7-.648z"/>
    </g>
</svg>
