<svg xmlns="http://www.w3.org/2000/svg" width="35" height="35" viewBox="0 0 35 35">
    <g fill="#E0000C" fill-rule="nonzero">
        <path d="M.094 3.208L2.422 7.29c.078.137.21.237.364.276l2.172.544 7.45 7.463.823-.824-7.567-7.58a.58.58 0 0 0-.27-.154l-2.087-.524-1.982-3.477 1.7-1.703L6.496 3.3l.524 2.09a.582.582 0 0 0 .153.272l7.566 7.58.823-.825-7.45-7.463-.543-2.175a.584.584 0 0 0-.276-.365L3.22.081a.581.581 0 0 0-.699.094L.193 2.507a.584.584 0 0 0-.1.701zM24.292 11.491L11.487 24.32l-.823-.825L23.47 10.667zM9.246 24.773a.582.582 0 0 0-.499-.283H5.255a.581.581 0 0 0-.499.283L3.01 27.688a.584.584 0 0 0 0 .6l1.746 2.916a.582.582 0 0 0 .5.283h3.491a.582.582 0 0 0 .5-.283l1.745-2.915a.584.584 0 0 0 0-.601l-1.746-2.915zm-.828 5.547H5.585l-1.397-2.332 1.397-2.332h2.833l1.397 2.332-1.397 2.332z"/>
        <path d="M27.955 13.995c3.844.013 6.971-3.099 6.984-6.95a6.986 6.986 0 0 0-.214-1.738.582.582 0 0 0-.976-.272l-3.623 3.627-2.875-.96-.958-2.878 3.623-3.63a.584.584 0 0 0-.273-.979c-3.728-.946-7.515 1.315-8.46 5.05a6.97 6.97 0 0 0-.071 3.1L8.365 21.132a6.855 6.855 0 0 0-1.364-.142c-3.857 0-6.984 3.133-6.984 6.997S3.144 34.985 7 34.985c3.858 0 6.985-3.133 6.985-6.997a6.873 6.873 0 0 0-.142-1.366l3.052-3.057 1.335 1.337a.582.582 0 0 0 .823 0l.29-.292a.654.654 0 0 1 .925.924l-.001.001-.291.292a.584.584 0 0 0 0 .824l6.943 6.955a4.692 4.692 0 0 0 6.643.03 4.712 4.712 0 0 0 .03-6.654l-.03-.03-6.943-6.956a.581.581 0 0 0-.823 0l-.29.292a.654.654 0 0 1-.925-.924l.001-.001.291-.292a.584.584 0 0 0 0-.824L23.54 16.91l3.051-3.057c.449.093.906.14 1.364.142zm2.287 19.824c-.423 0-.842-.077-1.238-.226l4.545-4.554a3.538 3.538 0 0 1-3.307 4.78zm-6.594-15.154a1.822 1.822 0 0 0 .225 2.564c.676.567 1.66.566 2.336-.002l6.531 6.549c.071.071.138.146.202.223l-4.977 4.985a3.39 3.39 0 0 1-.222-.202l-6.537-6.549a1.822 1.822 0 0 0-.225-2.563 1.814 1.814 0 0 0-2.336.001l-.931-.933 5.002-5.004.932.931zm2.35-5.864L12.794 26.025a.585.585 0 0 0-.153.554 5.87 5.87 0 0 1-4.233 7.136 5.859 5.859 0 0 1-7.124-4.24 5.87 5.87 0 0 1 4.233-7.136 5.853 5.853 0 0 1 2.891 0 .587.587 0 0 0 .553-.154l13.2-13.224a.583.583 0 0 0 .154-.554 5.804 5.804 0 0 1 4.176-7.06 5.786 5.786 0 0 1 1.794-.17l-3.07 3.077a.583.583 0 0 0-.14.596l1.163 3.498c.058.174.195.311.369.369l3.492 1.166c.209.07.44.015.595-.14l3.07-3.076a5.796 5.796 0 0 1-7.217 5.98.582.582 0 0 0-.552.153h.003z"/>
        <path d="M30.113 29.325l-.823.825-5.82-5.83.823-.825z"/>
    </g>
</svg>
