<svg xmlns="http://www.w3.org/2000/svg" width="30.739" height="30" viewBox="0 0 30.739 30">
    <defs>
        <style>
            .cls-1{fill:#a78647}.cls-2{clip-path:url(#clip-path)}
        </style>
        <clipPath id="clip-path">
            <path id="Path_363" d="M2.034-2.956h2.547v-5.172H2.034zm0 1v1.513h-1v-7.685h.148A1.182 1.182 0 0 1 0-9.31a1.182 1.182 0 0 1 1.182-1.182H5.32A1.182 1.182 0 0 1 6.5-9.31a1.182 1.182 0 0 1-1.18 1.182h.261v7.685h-1v-1.513zm23.68-17.662l-.034.065v7.1h-1v-6.076a2.648 2.648 0 0 1-1.33.356 2.66 2.66 0 0 1-2.365-1.44 2.66 2.66 0 0 1-2.365 1.44 2.66 2.66 0 0 1-2.365-1.44 2.66 2.66 0 0 1-2.365 1.44 2.66 2.66 0 0 1-2.365-1.44l-.034.065v7.1h-1v-6.076a2.648 2.648 0 0 1-1.33.356 2.66 2.66 0 0 1-2.361-1.45 2.66 2.66 0 0 1-2.365 1.44 2.66 2.66 0 0 1-2.66-2.66V-30h28.964v9.163a2.66 2.66 0 0 1-2.66 2.66 2.66 2.66 0 0 1-2.365-1.441zM15.581-3.547h-4.975v3.1h-1v-3.144a2.218 2.218 0 0 1-1.773-2.173v-5.911h.112L6.023-13.6H3.842v-.887h2.549l2.069 2.073h18.88v6.65a2.217 2.217 0 0 1-2.217 2.217h-1.1A4.287 4.287 0 0 1 19.8 0a4.287 4.287 0 0 1-4.219-3.547zm-.061-.887a4.286 4.286 0 0 1 4.28-4.137 4.286 4.286 0 0 1 4.283 4.138h1.037a1.33 1.33 0 0 0 1.33-1.33v-5.764H8.719v5.764a1.33 1.33 0 0 0 1.33 1.33zm-6.8-7.241h-.776l.148.148h.627zM19.8-.887a3.4 3.4 0 0 0 3.4-3.4 3.4 3.4 0 0 0-3.4-3.4 3.4 3.4 0 0 0-3.4 3.4 3.4 3.4 0 0 0 3.4 3.4zM2.66-29.113v8.276a1.773 1.773 0 0 0 1.773 1.773 1.773 1.773 0 0 0 1.773-1.773v-8.276zm9.458 0v8.276a1.773 1.773 0 0 0 1.773 1.773 1.773 1.773 0 0 0 1.773-1.773v-8.276zm9.458 0v8.276a1.773 1.773 0 0 0 1.773 1.773 1.773 1.773 0 0 0 1.773-1.773v-8.276zm-14.187 0v8.276a1.773 1.773 0 0 0 1.773 1.773 1.773 1.773 0 0 0 1.773-1.773v-8.276zm9.458 0v8.276a1.773 1.773 0 0 0 1.773 1.773 1.773 1.773 0 0 0 1.773-1.773v-8.276zm9.458 0v8.276a1.773 1.773 0 0 0 1.773 1.773 1.773 1.773 0 0 0 1.773-1.773v-8.276zM1.182-9.606a.3.3 0 0 0-.3.3.3.3 0 0 0 .3.3H5.32a.3.3 0 0 0 .3-.3.3.3 0 0 0-.3-.3z" class="cls-1" data-name="Path 363"/>
        </clipPath>
    </defs>
    <g id="vendor" transform="translate(0 30)">
        <g id="Group_221" class="cls-2" data-name="Group 221">
            <path id="Path_362" d="M-5-35h40.739V5H-5z" class="cls-1" data-name="Path 362"/>
        </g>
    </g>
</svg>
