<svg xmlns="http://www.w3.org/2000/svg" width="62" height="62" viewBox="0 0 62 62">
    <g fill="none" fill-rule="nonzero" transform="translate(1 1)">
        <circle cx="30" cy="30" r="30" fill="#F03690" stroke="#F03690" stroke-width="2"/>
        <path fill="#FFF" stroke="#FFF" stroke-width=".8" d="M41 15.001c3.877.065 7 3.159 7 6.966v19.066C48 44.881 44.81 48 40.875 48h-21.75C15.19 48 12 44.88 12 41.033V21.967c0-3.807 3.123-6.9 7-6.966V13.5a1.5 1.5 0 0 1 3 0V15h7v-1.5a1.5 1.5 0 0 1 3 0V15h6v-1.5a1.5 1.5 0 0 1 3 0v1.501zm0 2.934V19.5a1.5 1.5 0 0 1-3 0v-1.567h-6V19.5a1.5 1.5 0 0 1-3 0v-1.567h-7V19.5a1.5 1.5 0 0 1-3 0v-1.565c-2.22.065-4 1.845-4 4.032v19.066c0 2.228 1.847 4.034 4.125 4.034h21.75c2.278 0 4.125-1.806 4.125-4.034V21.967c0-2.187-1.78-3.967-4-4.032zM20.5 28a1.5 1.5 0 1 1 0-3 1.5 1.5 0 0 1 0 3zm0 7a1.5 1.5 0 1 1 0-3 1.5 1.5 0 0 1 0 3zm0 6a1.5 1.5 0 1 1 0-3 1.5 1.5 0 0 1 0 3zm6-13a1.5 1.5 0 1 1 0-3 1.5 1.5 0 0 1 0 3zm0 7a1.5 1.5 0 1 1 0-3 1.5 1.5 0 0 1 0 3zm0 6a1.5 1.5 0 1 1 0-3 1.5 1.5 0 0 1 0 3zm7-13a1.5 1.5 0 1 1 0-3 1.5 1.5 0 0 1 0 3zm6 0a1.5 1.5 0 1 1 0-3 1.5 1.5 0 0 1 0 3zM36 41l-.7-.685c-2.6-2.25-4.3-3.766-4.3-5.625 0-1.516 1.2-2.69 2.75-2.69.85 0 1.7.391 2.25 1.027A3.032 3.032 0 0 1 38.25 32C39.8 32 41 33.174 41 34.69c0 1.859-1.7 3.375-4.3 5.625L36 41z"/>
    </g>
</svg>
